<?xml version="1.0" standalone="no"?>
<!DOCTYPE svg PUBLIC "-//W3C//DTD SVG 20010904//EN"
 "http://www.w3.org/TR/2001/REC-SVG-20010904/DTD/svg10.dtd">
<svg version="1.0" xmlns="http://www.w3.org/2000/svg"
 width="684.000000pt" height="684.000000pt" viewBox="0 0 684.000000 684.000000"
 preserveAspectRatio="xMidYMid meet">
<metadata>
Created by potrace 1.14, written by Peter Selinger 2001-2017
</metadata>
<g transform="translate(0.000000,684.000000) scale(0.100000,-0.100000)"
fill="#000000" stroke="none">
<path d="M4586 4414 c-9 -8 -16 -19 -16 -23 0 -4 -10 -7 -22 -8 -21 -2 -93
-12 -126 -19 -20 -4 -102 -54 -102 -63 0 -4 -11 -20 -24 -34 -20 -22 -29 -25
-53 -18 -42 12 -133 12 -169 1 -17 -6 -36 -21 -43 -33 -11 -21 -18 -22 -124
-21 -62 0 -120 -3 -130 -8 -16 -8 -17 -34 -11 -446 3 -240 8 -450 9 -467 2
-16 4 -33 4 -38 1 -4 12 -12 25 -17 18 -7 23 -14 19 -29 -3 -12 -1 -21 3 -22
5 0 29 -3 53 -6 35 -4 42 -2 35 8 -6 11 -5 12 7 3 17 -14 296 -16 319 -3 8 5
11 9 5 9 -5 0 -3 5 5 10 12 8 13 11 1 19 -7 5 -9 11 -5 14 5 3 8 20 7 39 -1
18 -2 48 -2 67 -1 25 -5 32 -16 27 -8 -3 -14 -2 -14 2 1 4 -2 22 -6 40 -8 35
-11 36 -147 32 -37 -1 -58 3 -58 10 0 6 -5 8 -12 4 -7 -4 -8 -3 -4 5 4 6 2 20
-6 29 -12 15 -11 16 5 3 15 -12 17 -11 17 3 0 17 38 38 53 29 4 -2 7 0 7 6 0
5 8 8 17 7 10 -2 40 2 68 8 l50 11 2 65 c2 80 -2 97 -21 80 -12 -9 -15 -5 -18
27 l-3 38 -72 0 c-39 0 -75 3 -78 7 -12 12 5 63 26 77 12 7 19 9 16 4 -3 -4
12 -9 34 -9 34 -1 37 1 26 15 -10 14 -10 14 4 4 9 -7 20 -9 24 -5 5 4 5 2 2
-4 -4 -7 7 -11 28 -11 19 0 35 4 35 8 0 4 7 6 16 5 9 0 20 9 25 22 5 14 5 22
-2 22 -6 0 -7 6 -3 12 5 7 9 34 9 61 1 39 -2 47 -14 42 -10 -4 -9 1 5 16 19
22 19 22 -1 16 -19 -7 -19 -6 -2 7 20 16 23 30 4 23 -8 -3 -14 1 -14 8 0 8 5
13 11 12 6 -1 10 6 8 16 -3 16 -1 16 17 5 21 -13 21 -20 21 -440 0 -405 1
-428 19 -440 10 -7 21 -23 25 -35 4 -13 13 -23 19 -24 61 -6 137 -4 137 3 0 5
5 6 10 3 6 -3 11 -3 11 2 1 4 3 22 5 38 2 17 5 42 7 58 3 15 0 27 -7 27 -7 0
-8 3 -1 8 6 4 12 25 13 47 2 22 6 48 9 59 3 11 1 16 -5 12 -6 -3 -14 -2 -17 4
-4 6 -1 9 5 8 7 -2 14 5 15 15 4 21 15 36 15 20 0 -13 196 -344 238 -401 16
-23 32 -38 36 -35 3 3 6 2 6 -3 0 -11 51 -11 68 0 7 4 12 3 12 -3 0 -10 31 -7
50 4 6 3 10 1 10 -5 0 -8 6 -8 21 0 20 11 20 12 2 26 -15 11 -15 13 -1 8 12
-4 6 15 -24 78 -76 155 -150 313 -149 318 0 3 -7 15 -15 28 -14 22 -13 25 30
73 25 28 43 55 40 60 -3 5 0 9 6 9 25 0 47 122 26 149 -8 11 -8 13 1 8 9 -6
11 20 9 105 -4 114 -11 152 -27 142 -12 -7 2 29 15 38 20 13 11 131 -14 182
-27 56 -63 82 -159 111 -36 12 -66 26 -66 33 0 31 -54 42 -79 16z m-36 -514
c0 -5 -5 -10 -11 -10 -5 0 -7 5 -4 10 3 6 8 10 11 10 2 0 4 -4 4 -10z m355 -9
c3 -5 2 -12 -3 -15 -5 -3 -9 1 -9 9 0 17 3 19 12 6z m-669 -14 c4 -3 -4 -4
-16 -2 -12 2 -25 7 -28 10 -3 3 4 4 16 2 12 -2 24 -6 28 -10z m-136 -11 c0 -2
-8 -10 -17 -17 -16 -13 -17 -12 -4 4 13 16 21 21 21 13z m520 -16 c13 -8 13
-14 -4 -44 -10 -19 -31 -47 -47 -62 l-29 -27 10 31 c7 27 6 32 -8 33 -16 1
-16 2 0 6 14 3 15 9 8 28 -7 19 -5 27 8 34 22 13 43 13 62 1z m244 -176 c3 -8
2 -12 -4 -9 -6 3 -10 10 -10 16 0 14 7 11 14 -7z m-674 -68 c0 -3 -4 -8 -10
-11 -5 -3 -10 -1 -10 4 0 6 5 11 10 11 6 0 10 -2 10 -4z m-7 -41 c-3 -9 -8
-14 -10 -11 -3 3 -2 9 2 15 9 16 15 13 8 -4z m641 -4 c-8 -8 -43 -8 -38 0 2 4
13 7 24 6 10 -1 17 -3 14 -6z m-777 -16 c0 -8 -4 -12 -9 -9 -5 3 -6 10 -3 15
9 13 12 11 12 -6z m-32 -5 c3 -6 -1 -7 -9 -4 -18 7 -21 14 -7 14 6 0 13 -4 16
-10z m436 -337 c13 -16 12 -17 -3 -4 -17 13 -22 21 -14 21 2 0 10 -8 17 -17z"/>
<path d="M6261 4376 c-6 -7 -8 -15 -5 -18 3 -3 -14 -22 -38 -42 l-43 -37 -6
28 c-3 15 -2 33 3 39 9 13 0 24 -19 24 -7 0 -13 -10 -13 -22 0 -13 -5 -30 -10
-38 -9 -13 -11 -13 -20 0 -5 8 -7 25 -4 36 3 12 1 25 -6 29 -15 9 -42 -15 -32
-29 5 -6 8 -42 6 -81 -2 -64 -7 -78 -56 -162 -29 -51 -56 -93 -59 -93 -3 0
-25 37 -49 83 -43 80 -79 139 -101 165 -7 9 -36 12 -97 10 -78 -3 -87 -5 -90
-23 -1 -11 47 -139 108 -283 60 -145 110 -268 110 -274 0 -6 -56 -106 -125
-222 -69 -117 -125 -222 -125 -234 0 -15 6 -22 19 -22 14 0 21 -8 23 -27 l3
-28 127 -3 c119 -2 128 -1 138 18 6 11 8 26 4 32 -4 6 -3 8 3 5 5 -3 29 27 53
68 23 41 45 75 49 75 3 0 17 -26 31 -56 14 -31 36 -65 49 -75 13 -10 21 -19
17 -19 -4 0 -2 -8 3 -18 7 -13 20 -18 41 -17 16 1 30 -1 30 -5 0 -4 18 -4 40
0 26 5 40 4 40 -3 0 -6 7 -2 16 9 8 10 12 13 8 5 -5 -10 2 -12 37 -8 24 3 45
6 47 6 12 3 -11 61 -79 201 -143 294 -132 264 -113 301 14 27 14 36 4 53 -12
19 -12 20 3 7 15 -12 18 -10 27 15 6 16 19 45 29 64 10 19 16 46 14 60 -2 19
-1 21 6 10 8 -11 12 -9 20 14 6 15 8 32 5 38 -4 6 -2 8 3 5 13 -8 26 20 16 35
-3 6 -2 8 3 5 10 -6 68 115 69 143 1 30 39 100 57 106 24 7 19 39 -5 39 -9 0
-16 -4 -14 -8 2 -8 -40 -36 -55 -37 -12 0 -9 35 3 47 7 7 9 19 5 28 -5 14 -9
15 -21 5 -8 -7 -15 -18 -15 -24 0 -6 -9 -17 -20 -24 -18 -11 -20 -10 -21 10 0
13 -3 35 -5 50 -2 14 0 29 6 33 15 9 12 32 -4 38 -8 3 -19 0 -25 -7z m86 -301
c0 -8 -4 -12 -9 -9 -4 3 -8 9 -8 15 0 5 4 9 8 9 5 0 9 -7 9 -15z m-137 -255
c0 -5 -5 -10 -11 -10 -5 0 -7 5 -4 10 3 6 8 10 11 10 2 0 4 -4 4 -10z m-43
-127 c0 -8 -4 -10 -12 -3 -7 5 -16 6 -20 2 -5 -4 -5 -2 -2 4 9 15 34 13 34 -3z
m-177 -309 c0 -8 -19 -13 -24 -6 -3 5 1 9 9 9 8 0 15 -2 15 -3z m-65 -93 c3
-5 2 -12 -3 -15 -5 -3 -9 1 -9 9 0 17 3 19 12 6z m-24 -64 c-10 -9 -11 -8 -5
6 3 10 9 15 12 12 3 -3 0 -11 -7 -18z m446 -22 c0 -8 -4 -15 -9 -15 -10 0 -11
14 -1 23 9 10 10 9 10 -8z m-540 -10 c0 -8 -4 -12 -9 -9 -5 3 -6 10 -3 15 9
13 12 11 12 -6z m377 -1 c3 -8 2 -12 -4 -9 -6 3 -10 10 -10 16 0 14 7 11 14
-7z m-459 -13 c3 -5 2 -12 -3 -15 -5 -3 -9 1 -9 9 0 17 3 19 12 6z"/>
<path d="M1933 4281 c-17 -11 -50 -25 -73 -31 -32 -9 -45 -18 -53 -39 -5 -15
-23 -35 -38 -44 -20 -11 -32 -29 -40 -61 -12 -47 -29 -53 -29 -11 0 13 -8 29
-18 34 -10 5 -18 19 -19 31 -1 12 -5 25 -8 28 -10 10 -408 9 -428 0 -18 -9
-18 -30 -12 -441 9 -551 7 -527 42 -527 9 0 13 -3 10 -7 -4 -3 1 -12 11 -20 9
-8 11 -12 5 -8 -7 3 -13 2 -13 -3 0 -17 29 -22 141 -21 81 0 108 3 103 12 -5
8 -3 8 7 0 7 -7 28 -13 47 -13 31 0 33 2 21 18 -13 16 -12 16 4 2 35 -27 114
-23 103 5 -3 8 -2 16 2 19 5 3 7 37 7 77 -2 57 -6 75 -20 85 -10 8 -20 21 -21
30 -5 31 -23 37 -116 38 l-93 1 0 33 c-1 29 3 34 27 39 16 3 25 10 21 16 -3 6
-1 7 5 3 16 -9 113 4 106 15 -3 5 5 8 18 6 29 -3 36 27 11 56 -16 19 -16 20 0
8 16 -12 17 -10 17 33 0 39 -3 46 -20 46 -16 0 -20 7 -20 30 0 33 3 32 -94 34
-55 1 -60 3 -63 26 -3 31 7 49 32 53 11 1 25 6 31 10 6 3 14 3 18 0 4 -4 20
-8 36 -9 21 -2 28 1 23 9 -5 9 -3 9 8 1 12 -10 37 -12 71 -5 10 2 21 41 22 78
1 19 -3 29 -9 26 -6 -4 -6 -1 1 6 6 6 9 33 8 59 l-4 47 17 -45 c14 -38 17
-101 20 -412 4 -337 6 -367 21 -372 10 -3 22 -18 28 -33 10 -26 15 -28 73 -31
49 -2 61 0 55 10 -5 10 -4 11 7 1 17 -16 76 -17 85 -1 12 20 12 78 0 78 -7 0
-7 3 -1 8 14 10 15 52 1 52 -6 0 -6 4 2 9 8 4 14 12 14 16 0 4 -6 12 -14 16
-7 5 -8 9 -2 9 6 0 10 15 9 33 -2 19 -7 31 -14 29 -7 -1 -10 2 -6 8 3 6 11 8
16 5 5 -4 9 9 10 27 0 18 3 27 6 21 3 -9 29 -13 78 -13 49 0 75 4 78 13 4 8 6
8 6 0 1 -8 7 -8 26 0 15 7 23 18 20 26 -4 11 -2 11 8 2 11 -9 17 -8 27 3 6 9
9 20 5 25 -3 7 0 8 9 5 10 -4 16 -1 16 9 0 8 7 17 15 21 8 3 15 12 15 21 0 8
4 15 9 15 5 0 14 14 21 31 11 26 11 35 0 53 -12 19 -12 20 3 7 15 -12 17 -10
18 20 5 97 3 114 -12 111 -10 -1 -8 2 4 12 18 14 19 36 2 49 -6 4 -6 10 2 15
26 16 -6 121 -61 203 -24 37 -47 75 -50 86 -3 10 -27 34 -51 51 -37 26 -58 33
-113 37 -37 3 -83 7 -102 10 -25 4 -44 0 -67 -14z m154 -296 c0 -8 -4 -12 -9
-9 -5 3 -6 10 -3 15 9 13 12 11 12 -6z m-52 -25 c-4 -6 10 -10 35 -10 l41 0
-3 -87 c-3 -87 -3 -87 -37 -110 -35 -24 -67 -31 -56 -13 3 6 -2 10 -12 11 -15
0 -15 2 -3 7 9 4 15 16 15 27 0 11 -6 23 -15 27 -13 6 -13 7 0 7 10 1 15 13
17 40 1 33 -2 39 -15 34 -13 -4 -13 -2 2 9 10 8 16 20 12 26 -4 7 -2 12 3 12
6 0 10 3 10 8 -2 12 1 22 7 22 3 0 2 -4 -1 -10z m-390 -89 c3 -5 2 -12 -3 -15
-5 -3 -9 1 -9 9 0 17 3 19 12 6z m402 -366 c0 -8 -4 -12 -9 -9 -5 3 -6 10 -3
15 9 13 12 11 12 -6z m-482 -325 c3 -5 1 -10 -4 -10 -6 0 -11 5 -11 10 0 6 2
10 4 10 3 0 8 -4 11 -10z m410 0 c-3 -5 -12 -10 -18 -10 -7 0 -6 4 3 10 19 12
23 12 15 0z"/>
<path d="M555 4222 c-16 -2 -33 -9 -37 -15 -4 -7 -8 -94 -8 -194 0 -101 -2
-183 -4 -183 -3 0 -55 29 -116 64 l-110 65 -17 -26 c-25 -37 -2 -72 62 -97
121 -46 133 -61 110 -130 -9 -25 -13 -51 -10 -56 3 -5 23 -19 45 -31 l40 -23
0 -182 c0 -174 1 -183 20 -189 11 -3 20 -14 20 -24 0 -28 21 -41 68 -41 30 0
41 3 36 12 -5 7 -3 8 7 2 21 -13 108 -14 116 0 11 17 11 136 0 129 -5 -3 -4 4
2 15 14 27 14 35 -1 26 -10 -6 -10 -4 -2 7 6 8 10 37 9 65 l-1 51 88 2 c97 2
121 7 111 24 -3 6 -1 7 5 3 6 -4 21 -2 32 4 26 14 96 109 115 157 18 46 26
191 10 197 -6 3 -6 5 0 5 17 2 6 157 -12 170 -4 3 -9 12 -11 20 -8 37 -78 124
-118 147 -43 25 -50 26 -232 28 -103 0 -200 -1 -217 -2z m235 -264 c0 -4 -4
-8 -9 -8 -6 0 -12 4 -15 8 -3 5 1 9 9 9 8 0 15 -4 15 -9z m90 -91 c0 -91 -4
-99 -67 -131 -30 -15 -32 -15 -26 1 5 12 3 14 -7 8 -9 -6 -11 -4 -4 6 13 21
13 119 0 112 -6 -4 -5 0 1 9 7 8 10 17 8 20 -3 3 -1 17 4 32 9 22 16 26 51 26
l40 0 0 -83z m251 -164 c13 -16 12 -17 -3 -4 -10 7 -18 15 -18 17 0 8 8 3 21
-13z m-25 -68 c1 -8 -1 -17 -5 -19 -4 -3 -7 6 -7 19 0 25 8 25 12 0z m-131
-115 c3 -6 -1 -7 -9 -4 -18 7 -21 14 -7 14 6 0 13 -4 16 -10z m-169 -15 c-1
-8 -5 -17 -8 -21 -5 -4 -4 16 1 34 3 9 9 -1 7 -13z m-42 -231 c3 -8 2 -12 -4
-9 -6 3 -10 10 -10 16 0 14 7 11 14 -7z m-17 -79 c0 -8 -4 -12 -9 -9 -4 3 -8
9 -8 15 0 5 4 9 8 9 5 0 9 -7 9 -15z"/>
<path d="M2937 4213 c-14 -14 -3 -58 94 -378 55 -181 102 -338 104 -347 20
-85 80 -256 95 -268 10 -8 20 -24 22 -35 3 -18 11 -20 96 -20 l94 0 18 53 c10
29 19 53 19 55 0 2 2 8 37 107 14 41 26 83 26 93 -1 9 3 17 8 17 7 0 18 40 21
75 0 6 5 15 11 22 5 7 7 17 3 23 -3 5 -2 10 3 10 12 0 33 80 25 93 -3 6 -1 7
4 4 13 -8 27 39 17 55 -4 7 -3 8 4 4 7 -4 13 -1 14 6 0 7 2 18 2 23 1 6 5 16
10 23 17 28 24 70 13 82 -9 8 -7 9 7 4 15 -6 18 -4 13 9 -3 9 -2 19 4 22 5 4
7 11 4 16 -4 5 -1 9 5 9 7 0 10 7 6 15 -3 8 0 15 6 15 6 0 8 3 5 7 -4 3 -2 12
3 18 15 18 -5 66 -23 59 -11 -4 -13 1 -10 20 7 36 -17 43 -133 42 -99 -2 -134
-12 -134 -38 0 -21 -103 -348 -108 -343 -3 3 -7 16 -9 28 -2 12 -8 24 -13 25
-6 2 -7 8 -4 13 3 6 0 17 -8 26 -7 9 -12 18 -10 20 6 9 1 23 -8 18 -5 -3 -7 0
-4 8 3 8 -5 40 -18 73 -12 32 -21 62 -20 67 1 4 -3 7 -10 7 -6 0 -9 3 -5 6 7
8 -22 84 -40 102 -7 7 -13 17 -13 22 0 5 -7 16 -16 24 -12 12 -37 16 -108 16
-51 0 -96 -3 -99 -7z m764 -166 c-10 -9 -11 -8 -5 6 3 10 9 15 12 12 3 -3 0
-11 -7 -18z m-1 -43 c0 -8 -19 -13 -24 -6 -3 5 1 9 9 9 8 0 15 -2 15 -3z m-55
-133 c3 -5 2 -12 -3 -15 -5 -3 -9 1 -9 9 0 17 3 19 12 6z m-64 -184 c-10 -9
-11 -8 -5 6 3 10 9 15 12 12 3 -3 0 -11 -7 -18z m-16 -56 c3 -5 2 -12 -3 -15
-5 -3 -9 1 -9 9 0 17 3 19 12 6z m-59 -231 c0 -12 -4 -16 -9 -11 -5 5 -6 14
-3 20 10 15 12 14 12 -9z m-21 -40 c3 -5 1 -10 -4 -10 -6 0 -11 5 -11 10 0 6
2 10 4 10 3 0 8 -4 11 -10z"/>
<path d="M2443 4182 c-11 -12 -13 -80 -7 -426 8 -553 6 -517 32 -534 12 -8 22
-23 22 -34 0 -15 5 -19 20 -15 11 3 18 2 15 -2 -2 -5 72 -8 166 -9 120 0 167
3 163 10 -5 7 -2 8 7 2 34 -21 55 -13 50 19 0 4 4 7 11 7 6 0 3 7 -8 15 -10 9
-13 14 -5 13 7 -2 16 3 19 11 3 10 0 11 -9 5 -12 -7 -12 -5 0 9 9 12 10 17 2
17 -7 0 -9 5 -4 13 12 20 12 38 0 31 -9 -5 -8 -3 0 6 14 15 0 50 -20 50 -7 0
-14 12 -15 27 -1 14 -4 28 -5 30 -2 2 -49 4 -105 5 l-101 2 1 28 c1 33 30 58
66 58 16 0 22 5 19 13 -3 8 1 14 8 14 7 0 11 -6 8 -12 -3 -8 4 -11 21 -8 18 4
23 10 21 25 -3 12 -1 17 3 14 4 -4 7 -12 7 -17 0 -8 7 -11 20 -8 3 1 10 2 17
3 17 1 23 123 8 141 -7 8 -16 12 -21 9 -5 -3 -9 9 -9 25 0 34 3 33 -95 35
l-60 1 -1 33 c-1 37 21 53 65 45 13 -2 28 2 32 9 6 9 9 9 9 1 0 -8 17 -11 54
-8 59 3 80 11 71 26 -4 5 -2 9 3 9 5 0 9 7 9 15 0 8 -5 15 -10 15 -5 0 -4 7 3
15 10 12 10 15 0 15 -9 0 -9 4 1 17 12 15 12 16 -1 8 -13 -8 -13 -7 -1 8 10
13 10 17 1 17 -8 0 -9 4 -3 13 7 10 10 75 4 125 0 6 -10 12 -20 12 -14 0 -19
6 -16 18 8 44 -3 46 -221 47 -164 1 -209 -2 -221 -13z m464 -137 c0 -8 -4 -12
-9 -9 -5 3 -6 10 -3 15 9 13 12 11 12 -6z m-100 -174 c0 -11 -5 -18 -9 -15 -4
3 -5 11 -1 19 7 21 12 19 10 -4z m38 0 c3 -5 2 -12 -3 -15 -5 -3 -9 1 -9 9 0
17 3 19 12 6z m-151 -10 c3 -4 -4 -7 -14 -6 -27 2 -33 10 -10 12 11 1 22 -2
24 -6z m-24 -41 c0 -5 -5 -10 -11 -10 -5 0 -7 5 -4 10 3 6 8 10 11 10 2 0 4
-4 4 -10z m195 -169 c3 -5 2 -12 -3 -15 -5 -3 -9 1 -9 9 0 17 3 19 12 6z m5
-451 c0 -5 -2 -10 -4 -10 -3 0 -8 5 -11 10 -3 6 -1 10 4 10 6 0 11 -4 11 -10z"/>
<path d="M5095 4171 c-48 -22 -78 -54 -94 -100 -16 -48 -14 -238 3 -293 23
-79 132 -204 168 -195 10 3 16 1 13 -3 -7 -11 84 -42 98 -33 6 3 7 1 3 -5 -4
-7 -1 -12 8 -12 18 0 22 -35 6 -45 -6 -4 -72 -7 -148 -7 -75 0 -143 -5 -149
-10 -9 -7 -13 -44 -13 -119 0 -104 1 -109 24 -125 14 -8 23 -21 20 -29 -3 -7
1 -17 8 -21 18 -12 81 -11 90 1 5 7 8 7 8 0 0 -13 69 -13 89 -1 9 6 12 5 8 -1
-4 -6 6 -10 24 -11 19 0 27 3 23 10 -5 7 -2 8 7 2 8 -4 40 -9 72 -9 46 0 56 2
52 14 -4 11 -3 11 9 2 9 -7 21 -9 28 -5 7 5 19 9 27 11 19 2 80 69 92 100 11
30 13 308 3 350 -9 33 -44 89 -80 126 -24 24 -132 67 -170 67 -8 0 -14 5 -14
10 0 10 10 11 183 12 91 0 97 1 101 22 8 38 3 225 -5 220 -5 -3 -6 2 -3 10 4
9 -1 18 -10 22 -9 3 -16 14 -16 23 0 38 -18 41 -224 41 -174 0 -206 -3 -241
-19z m355 -275 c0 -2 -8 -10 -17 -17 -16 -13 -17 -12 -4 4 13 16 21 21 21 13z
m39 -9 c8 -10 7 -14 -2 -14 -8 0 -14 6 -14 14 0 7 1 13 2 13 2 0 8 -6 14 -13z
m51 -3 c0 -8 -19 -13 -24 -6 -3 5 1 9 9 9 8 0 15 -2 15 -3z m-32 -649 c-3 -3
-9 2 -12 12 -6 14 -5 15 5 6 7 -7 10 -15 7 -18z m-324 -36 c3 -3 -5 -5 -19 -5
-13 0 -22 3 -19 7 4 8 30 6 38 -2z m137 -6 c13 -16 12 -17 -3 -4 -10 7 -18 15
-18 17 0 8 8 3 21 -13z m-51 -13 c0 -5 -2 -10 -4 -10 -3 0 -8 5 -11 10 -3 6
-1 10 4 10 6 0 11 -4 11 -10z"/>
<path d="M1966 2863 c-4 -5 -11 -8 -15 -8 -4 0 -15 -8 -24 -17 -16 -16 -16
-17 3 -23 11 -4 18 -11 14 -16 -4 -6 -11 -6 -20 2 -10 8 -14 8 -14 0 0 -6 5
-11 10 -11 6 0 10 -5 10 -11 0 -5 -4 -8 -8 -5 -4 2 -9 -6 -10 -20 -2 -22 8
-29 31 -25 5 1 5 -4 1 -10 -5 -8 -3 -9 6 -4 9 5 11 4 6 -3 -5 -9 -13 -9 -27
-2 -13 7 -19 7 -19 0 0 -5 6 -10 13 -10 8 0 7 -4 -3 -10 -13 -8 -13 -10 -1
-10 11 0 9 -4 -5 -16 -18 -14 -18 -15 4 -4 12 6 20 15 17 19 -3 5 2 11 10 15
27 10 16 -18 -17 -46 l-33 -27 27 4 c19 4 26 1 24 -10 -3 -18 -16 -32 -16 -17
0 7 -5 12 -12 12 -6 0 -3 -8 7 -20 10 -11 21 -17 26 -15 4 3 10 1 13 -4 4 -5
19 -8 34 -6 15 2 32 4 38 4 6 1 10 16 10 35 -1 19 -4 32 -7 30 -4 -2 -9 2 -12
9 -3 9 -18 12 -41 11 -27 -2 -35 0 -29 9 4 7 8 32 8 57 0 42 2 45 27 44 18 -1
25 3 21 12 -3 8 2 11 14 9 10 -2 20 -4 23 -4 3 -1 -2 -6 -10 -11 -9 -6 -10
-10 -3 -10 17 0 25 17 13 25 -7 5 -8 11 -1 19 13 15 9 43 -9 59 -8 7 -10 7 -7
1 4 -7 -1 -18 -10 -25 -15 -12 -16 -12 -10 3 3 10 1 20 -5 24 -6 4 -8 3 -4 -4
3 -5 0 -13 -6 -15 -10 -4 -10 -8 1 -15 8 -6 9 -12 3 -16 -12 -7 -23 19 -16 39
6 16 -7 21 -20 8z m9 -13 c-3 -5 -1 -19 5 -31 l12 -21 27 26 c24 23 27 24 28
7 1 -11 -6 -26 -15 -33 -11 -9 -14 -10 -8 0 4 6 3 12 -3 12 -5 0 -11 -6 -14
-12 -3 -10 -8 -10 -23 2 -17 13 -17 13 1 -9 16 -20 17 -23 4 -18 -21 7 -39
-11 -32 -32 4 -11 1 -10 -11 4 l-16 20 6 -20 c6 -16 4 -18 -6 -8 -10 9 -8 18
9 42 13 17 19 31 14 31 -4 0 -1 5 7 11 12 9 11 10 -7 6 -15 -3 -20 -1 -16 9 3
8 9 12 13 9 5 -3 11 -1 15 5 3 5 8 10 11 10 3 0 2 -4 -1 -10z m-1 -212 c-7
-11 4 -10 28 3 12 7 18 7 14 1 -3 -6 -1 -12 6 -14 6 -2 12 -14 13 -25 1 -15
-3 -19 -13 -15 -9 3 -13 1 -9 -4 5 -8 -38 -12 -53 -4 -3 1 -9 2 -13 1 -5 -1
-6 3 -2 9 5 8 11 8 19 1 9 -8 12 -6 11 9 -1 11 -9 26 -19 33 -16 12 -16 13 3
13 11 0 17 -4 15 -8z"/>
<path d="M1946 2774 c-5 -14 -4 -15 9 -4 17 14 19 20 6 20 -5 0 -12 -7 -15
-16z"/>
<path d="M2000 2620 c10 -6 11 -10 3 -10 -7 0 -13 -5 -13 -10 0 -6 8 -5 20 2
14 9 16 14 7 20 -7 4 -16 8 -22 8 -5 0 -3 -5 5 -10z"/>
<path d="M2570 2858 c0 -4 5 -8 11 -8 8 0 8 -4 1 -12 -5 -7 -8 -24 -7 -38 1
-18 7 -24 21 -22 15 2 13 -1 -6 -13 -19 -12 -21 -15 -6 -13 10 2 21 -3 23 -10
3 -7 -1 -11 -8 -10 -10 2 -13 -14 -14 -59 0 -34 2 -60 6 -57 4 2 10 0 14 -6 3
-5 0 -10 -7 -10 -10 0 -9 -3 2 -9 8 -6 18 -7 24 -4 5 4 7 -1 3 -10 -4 -10 -2
-14 6 -11 15 6 18 84 3 84 -6 0 -3 5 7 11 9 6 15 14 12 20 -4 5 -1 9 4 9 6 0
11 -6 11 -12 0 -7 5 -5 11 5 5 9 15 17 21 17 7 0 6 -5 -2 -15 -9 -10 -9 -15
-1 -15 6 0 11 6 11 13 0 8 3 7 10 -3 6 -9 5 -17 -3 -23 -7 -5 -2 -5 12 -2 16
5 21 4 17 -4 -4 -6 -2 -9 7 -5 8 3 14 -2 14 -11 0 -9 -6 -14 -14 -10 -35 14
-48 17 -34 7 11 -8 11 -10 0 -15 -10 -4 -8 -6 4 -6 10 -1 16 -4 13 -9 -5 -9
15 -36 30 -39 7 -1 10 10 9 28 -1 16 1 32 6 35 5 3 6 11 2 17 -12 19 -12 36
-2 43 6 3 5 11 -2 20 -9 11 -9 17 1 29 10 12 10 15 -1 15 -10 0 -10 3 -1 12 9
9 8 16 -6 32 -13 15 -14 18 -2 14 11 -4 15 2 15 21 1 19 -5 27 -17 28 -12 1
-18 -4 -16 -14 2 -9 -3 -18 -10 -20 -7 -3 -10 1 -6 10 3 8 2 17 -3 20 -4 3 -8
-7 -8 -23 -1 -21 3 -26 15 -22 8 3 12 2 8 -3 -4 -4 -3 -14 3 -22 14 -17 -2
-17 -20 0 -8 6 -11 8 -9 2 8 -15 -14 -31 -40 -29 -21 1 -22 0 -7 -16 9 -10 12
-21 7 -24 -5 -3 -17 9 -26 27 -8 17 -16 26 -16 18 0 -11 -4 -9 -15 5 -18 24
-19 40 -2 25 21 -17 28 -1 11 24 -14 21 -14 24 3 34 19 11 16 13 -34 15 -18 1
-33 -1 -33 -6z m53 -11 c-4 -7 -8 -18 -10 -26 -1 -8 -8 -20 -15 -28 -12 -11
-14 -9 -12 14 1 16 3 30 4 33 1 3 2 7 2 10 0 3 8 7 19 7 13 1 17 -2 12 -10z
m151 -6 c3 -5 -2 -15 -12 -22 -15 -12 -16 -12 -5 2 7 9 10 19 6 22 -3 4 -4 7
0 7 3 0 8 -4 11 -9z m-3 -74 c-5 -5 -7 -16 -4 -23 6 -17 -19 -18 -35 -2 -7 7
-12 10 -13 8 0 -3 -2 -13 -4 -22 -2 -10 1 -18 6 -18 5 0 9 6 9 13 0 8 4 7 10
-3 5 -8 10 -11 10 -6 0 5 7 3 16 -5 14 -12 14 -14 -2 -26 -12 -9 -14 -13 -4
-13 7 0 11 -2 8 -5 -8 -8 -38 6 -38 17 0 5 4 7 8 4 4 -2 14 -1 21 3 9 6 10 11
2 15 -6 4 -11 3 -11 -3 0 -10 -19 -9 -37 2 -7 5 -19 5 -25 0 -7 -4 -19 -8 -25
-8 -7 0 -12 -4 -10 -8 1 -5 -6 -13 -16 -18 -9 -6 -14 -15 -11 -21 13 -21 12
-55 -2 -55 -7 0 -11 4 -8 8 2 4 -4 15 -13 25 -17 17 -17 18 0 11 9 -3 17 -2
17 3 0 6 -6 10 -13 10 -8 0 -13 14 -13 39 0 23 4 39 10 38 6 -1 10 8 9 20 -3
23 -3 23 17 3 11 -11 20 -23 19 -26 -2 -14 26 -22 38 -12 11 9 11 14 1 26 -11
13 -10 15 4 9 9 -3 22 1 29 9 10 12 14 12 26 -3 8 -10 12 -13 9 -6 -4 6 -2 15
4 18 8 5 7 12 -2 23 -12 15 -11 16 5 3 11 -9 14 -18 8 -24z m-11 -167 c-9 -6
-9 -9 -1 -13 8 -4 8 -5 0 -3 -7 1 -13 9 -15 18 -1 11 3 15 13 11 11 -4 12 -8
3 -13z"/>
<path d="M2590 2819 c0 -5 5 -7 10 -4 6 3 10 8 10 11 0 2 -4 4 -10 4 -5 0 -10
-5 -10 -11z"/>
<path d="M2614 2718 c-3 -5 -7 -21 -9 -36 -3 -24 -2 -25 11 -7 8 10 14 23 14
28 0 4 4 6 8 3 5 -3 9 1 9 8 0 14 -25 17 -33 4z"/>
<path d="M4605 2862 c-4 -4 -11 -8 -16 -8 -5 -1 -12 -2 -15 -3 -4 0 0 -9 7
-18 12 -15 12 -16 -6 -9 -11 4 -16 4 -13 0 4 -4 3 -16 -3 -28 -9 -19 -9 -19 4
-3 18 22 22 22 24 -3 1 -11 -4 -19 -10 -17 -7 1 -11 -4 -9 -10 1 -7 -3 -13 -9
-13 -8 0 -8 -4 0 -13 8 -10 7 -17 -2 -27 -9 -10 -9 -11 1 -6 15 9 16 -6 0 -22
-7 -7 -8 -12 -2 -12 5 0 10 -9 11 -20 1 -12 -3 -18 -9 -14 -10 7 7 -31 25 -54
8 -10 13 -10 25 0 13 11 15 10 10 -2 -4 -11 0 -16 12 -16 10 0 18 4 17 9 -1 5
4 12 11 14 7 3 11 -1 10 -8 -2 -7 6 -14 17 -16 19 -3 19 -3 1 5 -17 7 -17 9
-4 14 10 4 15 18 15 40 -1 32 -3 34 -35 33 -18 0 -38 -7 -43 -15 -8 -12 -10
-10 -6 8 3 14 -1 26 -11 32 -15 8 -15 9 1 10 14 0 17 5 12 21 -4 13 -3 19 2
16 5 -4 10 0 10 8 0 8 -4 12 -8 10 -3 -3 -13 3 -20 12 -12 14 -11 15 8 9 12
-4 24 -2 28 4 3 6 11 8 16 5 5 -4 18 -8 30 -10 18 -4 19 -2 7 12 -11 14 -11
16 2 11 11 -4 15 2 16 26 0 36 -24 60 -43 44 -7 -6 -13 -6 -13 -1 0 10 -35 15
-45 5z m35 -12 c9 -5 19 -5 26 1 12 10 26 -3 30 -28 2 -14 -19 -34 -38 -37 -7
-1 -19 -5 -26 -10 -9 -5 -20 -2 -30 9 -10 10 -11 15 -4 11 6 -4 12 -2 12 4 0
6 5 8 13 3 19 -12 38 -12 31 -1 -4 6 -3 8 2 5 6 -3 16 -1 24 5 12 8 11 9 -4 4
-13 -5 -17 -2 -13 8 4 9 0 13 -11 11 -9 -1 -21 3 -25 9 -6 7 -7 6 -4 -4 2 -8
10 -14 16 -12 13 3 15 -14 2 -23 -5 -3 -12 -1 -16 4 -3 6 -11 9 -18 7 -7 -1
-9 -1 -4 1 4 3 7 9 7 14 0 6 -4 8 -9 4 -5 -3 -13 0 -17 6 -4 7 -3 9 4 5 6 -3
13 -2 17 4 8 12 16 12 35 0z m-35 -129 c1 -11 -6 -23 -14 -26 -14 -6 -13 -8 3
-21 11 -8 15 -14 10 -14 -14 0 -14 -30 0 -31 6 -1 18 0 26 1 8 1 12 -1 8 -6
-4 -4 -3 -13 3 -20 6 -8 7 -14 0 -18 -6 -4 -15 3 -21 14 -11 21 -30 19 -30 -3
0 -7 4 -6 10 3 6 9 10 10 10 3 0 -22 -19 -24 -30 -3 -9 16 -8 25 1 36 6 8 7
14 2 14 -5 0 -9 27 -9 60 0 53 2 58 15 45 8 -8 15 -23 16 -34z m56 -83 c1 -4
2 -12 3 -17 0 -5 4 -13 8 -16 4 -4 5 5 2 20 -2 14 -1 24 4 21 11 -6 13 -56 3
-56 -10 1 -46 30 -37 30 5 0 3 6 -3 13 -8 10 -7 14 4 14 8 0 16 -4 16 -9z"/>
<path d="M753 2836 c0 -17 5 -26 15 -26 8 0 12 -3 9 -7 -4 -3 -1 -13 6 -21 10
-13 9 -15 -5 -9 -21 8 -36 -12 -17 -23 7 -5 17 -6 21 -4 10 6 11 -10 1 -19 -3
-4 -11 -3 -17 2 -8 7 -12 1 -12 -19 l-2 -29 19 22 c10 12 18 17 19 11 0 -5
-10 -21 -22 -34 -19 -20 -19 -23 -4 -17 14 5 17 3 13 -8 -4 -8 -2 -17 3 -20 6
-4 10 -12 10 -18 -1 -7 -9 -2 -20 11 l-18 22 1 -39 c1 -22 5 -42 8 -46 4 -3 5
8 4 24 -1 17 1 28 6 25 5 -3 7 -10 4 -15 -4 -5 -1 -9 4 -9 6 0 10 -5 8 -11 -1
-6 5 -14 13 -16 12 -4 12 -3 2 5 -11 7 -10 10 3 16 23 8 25 8 22 -5 -1 -6 6
-13 15 -14 11 -2 15 2 11 11 -3 8 -2 14 3 13 20 -3 31 2 31 14 0 9 -14 13 -44
12 -37 -1 -42 1 -37 17 3 10 1 18 -5 18 -6 0 -11 5 -11 11 0 6 7 8 16 5 8 -3
12 -2 9 4 -3 5 7 7 25 5 17 -2 28 0 25 6 -4 5 -2 9 3 9 5 0 9 7 9 14 0 11 -5
12 -18 5 -24 -12 -32 -11 -23 3 4 7 3 8 -4 4 -7 -4 -20 -2 -29 3 -13 8 -14 10
-3 11 11 0 11 3 2 12 -18 18 -14 32 5 17 9 -8 14 -9 10 -3 -4 7 0 14 8 18 8 3
17 1 21 -5 4 -7 10 -6 18 0 7 6 16 8 19 4 4 -3 7 -1 7 5 0 15 -13 15 -27 1 -9
-9 -12 -7 -10 10 1 15 6 19 18 16 10 -3 20 -1 24 4 4 7 -1 8 -11 4 -13 -5 -15
-3 -8 8 17 27 12 36 -20 34 -20 -1 -30 -6 -28 -14 2 -9 -3 -11 -13 -7 -9 3
-14 2 -11 -3 3 -5 -5 -8 -18 -7 -13 0 -23 3 -21 6 2 3 0 12 -4 19 -6 9 -8 4
-8 -13z m122 4 c3 -5 -4 -14 -15 -20 -11 -6 -18 -15 -16 -19 3 -4 -6 -13 -19
-19 -18 -9 -26 -8 -32 1 -11 18 -13 38 -2 32 11 -7 51 14 45 23 -3 5 4 8 14 9
11 1 22 -2 25 -7z m-23 -144 c7 4 8 3 4 -4 -3 -6 -20 -9 -36 -7 -17 2 -30 -1
-30 -7 0 -6 -3 -8 -6 -5 -4 4 -1 13 6 22 9 11 17 12 31 4 11 -5 25 -7 31 -3z
m-2 -96 c0 -4 -13 -7 -30 -7 -16 0 -30 3 -30 7 0 3 14 6 30 6 17 0 30 -3 30
-6z"/>
<path d="M823 2811 c-12 -11 -24 -17 -29 -13 -4 4 -4 2 0 -5 9 -16 28 -8 44
17 15 25 11 25 -15 1z"/>
<path d="M776 2848 c3 -4 11 -5 19 -1 21 7 19 12 -4 10 -11 0 -18 -5 -15 -9z"/>
<path d="M1198 2854 c6 -3 12 -10 12 -15 0 -4 -6 -7 -12 -5 -7 1 -10 1 -7 -1
3 -2 4 -28 3 -58 -1 -36 2 -55 9 -55 7 0 6 -5 -3 -11 -13 -8 -12 -9 4 -7 11 2
21 -5 26 -17 6 -16 4 -21 -11 -21 -12 0 -15 4 -9 11 6 7 1 11 -13 12 -12 0
-17 -1 -10 -4 7 -2 9 -12 6 -20 -5 -13 -2 -15 13 -10 17 6 17 5 3 -5 -8 -7
-15 -28 -15 -45 0 -31 1 -32 18 -16 18 16 26 5 8 -13 -6 -6 6 -9 31 -10 23 -1
35 2 28 7 -7 4 -17 5 -23 2 -5 -4 -7 1 -3 11 4 10 7 20 7 23 0 2 7 -3 16 -11
8 -9 21 -13 27 -9 6 4 8 1 5 -9 -4 -8 -1 -15 6 -15 7 0 13 12 14 26 3 37 27
58 46 41 13 -10 16 -10 16 4 0 10 -8 16 -22 16 -18 0 -20 2 -8 9 8 6 17 8 20
6 4 -2 7 2 7 10 0 15 -16 20 -47 15 -8 -1 -12 1 -8 6 4 4 3 13 -3 21 -8 9 -8
13 -1 13 6 0 14 -5 17 -10 4 -6 11 -8 16 -4 5 3 7 9 4 14 -3 5 3 13 12 19 14
8 16 12 6 22 -16 16 -17 33 -1 23 7 -4 2 7 -10 24 -30 41 -37 45 -52 27 -7 -8
-17 -15 -22 -15 -7 0 -6 5 0 13 9 11 5 13 -18 13 -16 0 -27 -3 -24 -8 6 -10
-10 -11 -20 -1 -3 4 -17 8 -29 9 -12 2 -16 0 -9 -2z m67 -14 c9 7 18 10 22 6
3 -3 0 -6 -8 -6 -10 -1 -8 -4 4 -11 14 -8 23 -7 36 5 17 16 19 15 35 -8 10
-16 12 -27 5 -31 -6 -5 -4 -11 6 -19 15 -11 15 -13 1 -25 -9 -7 -13 -18 -9
-24 3 -6 1 -7 -6 -3 -6 4 -9 12 -6 17 4 5 1 9 -4 9 -6 0 -11 5 -11 11 0 6 9 8
23 4 20 -5 20 -5 -3 9 -14 9 -20 15 -14 16 6 0 11 8 11 17 0 16 -1 16 -11 1
-9 -16 -13 -15 -46 3 -19 12 -27 14 -17 6 11 -9 14 -17 7 -20 -6 -3 -5 -4 2
-3 7 2 21 -1 31 -6 14 -7 15 -13 6 -30 -9 -16 -8 -19 3 -13 7 3 5 0 -4 -8 -19
-15 -25 -33 -9 -22 5 3 13 0 17 -6 4 -8 3 -9 -4 -5 -7 4 -12 2 -12 -4 0 -6 -4
-9 -8 -6 -4 2 -14 0 -22 -6 -13 -8 -12 -9 2 -5 19 7 42 -15 30 -29 -4 -5 5 1
19 14 20 17 29 20 34 11 5 -8 4 -10 -3 -5 -7 4 -13 2 -13 -3 -1 -6 -2 -15 -3
-20 0 -6 -8 -16 -16 -23 -12 -11 -12 -10 0 7 14 18 14 19 -2 7 -10 -8 -20 -23
-24 -34 -4 -14 -9 -17 -14 -9 -4 7 -19 14 -34 15 -23 3 -25 1 -14 -13 12 -14
11 -15 -5 -2 -16 13 -20 13 -28 0 -7 -11 -8 -10 -6 6 4 30 16 45 35 45 15 0
15 -2 2 -10 -13 -8 -12 -10 4 -10 13 0 16 5 11 18 -4 9 -10 23 -13 31 -3 9 -1
12 6 7 8 -5 10 -1 5 10 -4 10 -2 15 3 11 13 -8 41 10 31 20 -5 4 -12 2 -16 -6
-12 -19 -19 5 -16 51 2 23 -3 42 -11 49 -8 6 -15 9 -15 5 -1 -3 -2 -9 -3 -13
-1 -5 -5 -13 -9 -20 -5 -8 -1 -11 12 -8 14 3 19 -2 18 -16 -1 -20 -17 -27 -17
-8 0 5 -5 7 -11 3 -8 -5 -8 -9 1 -14 6 -4 11 -10 11 -14 -3 -23 0 -30 9 -16 6
9 10 10 10 3 0 -20 -17 -24 -31 -7 -17 21 -18 105 -2 111 7 3 10 10 6 17 -4 6
1 5 10 -3 14 -11 20 -11 32 -1z m-20 -29 c3 -5 2 -12 -3 -15 -5 -3 -9 1 -9 9
0 17 3 19 12 6z m85 -131 c0 -5 -2 -10 -4 -10 -3 0 -8 5 -11 10 -3 6 -1 10 4
10 6 0 11 -4 11 -10z"/>
<path d="M1319 2823 c-13 -16 -12 -17 4 -4 9 7 17 15 17 17 0 8 -8 3 -21 -13z"/>
<path d="M1436 2852 c-17 -4 -16 -5 5 -16 25 -12 39 -46 19 -46 -6 0 -9 4 -6
9 3 5 -1 14 -9 21 -10 9 -15 9 -15 1 0 -6 6 -11 13 -11 9 0 9 -2 0 -8 -7 -4
-10 -16 -9 -27 2 -11 -1 -27 -7 -35 -6 -8 -7 -12 -2 -7 4 4 19 0 31 -8 27 -17
39 -6 39 35 0 16 6 26 19 28 11 3 16 0 12 -7 -4 -7 -1 -9 8 -5 14 5 17 -18 4
-32 -4 -3 -4 -13 -1 -22 4 -10 2 -13 -5 -8 -6 3 -13 2 -17 -4 -4 -6 -11 -7
-17 -4 -6 4 -8 2 -5 -3 4 -6 -4 -10 -18 -10 -14 0 -22 3 -20 8 8 11 -13 21
-27 13 -8 -5 -6 -11 6 -20 11 -8 13 -14 7 -19 -20 -12 -11 -22 19 -23 17 0 30
3 30 8 0 4 -11 7 -25 6 -13 -2 -22 0 -20 5 8 12 60 5 60 -8 0 -7 6 -18 13 -24
10 -11 12 -10 12 1 0 8 9 0 20 -18 11 -18 19 -36 19 -40 -3 -18 2 -32 17 -47
15 -15 18 -14 32 6 11 17 12 24 4 27 -7 2 -9 9 -6 14 4 7 2 8 -5 4 -6 -4 -9
-11 -6 -16 3 -4 -2 -10 -10 -14 -19 -7 -19 4 1 32 10 14 11 22 3 20 -6 -2 -14
3 -17 11 -3 9 0 11 8 6 8 -5 11 -4 7 3 -4 5 -17 8 -29 4 l-21 -5 22 22 c15 15
20 28 15 43 -4 15 -3 18 6 13 17 -11 31 15 19 36 -6 11 -5 20 1 24 15 9 12 25
-5 25 -8 0 -15 5 -15 11 0 5 4 8 9 4 18 -10 20 12 3 27 -26 23 -46 33 -38 20
8 -13 -6 -17 -18 -5 -9 10 -66 11 -60 1 7 -10 -9 -10 -21 0 -6 5 -18 7 -29 4z
m59 -12 c12 10 15 10 15 0 0 -10 3 -10 14 -1 10 9 16 9 21 1 4 -6 15 -8 24 -5
10 3 24 -1 31 -10 7 -9 9 -15 4 -14 -27 5 -34 -1 -22 -20 7 -11 17 -17 23 -14
5 3 5 0 -2 -7 -8 -9 -9 -19 -2 -32 10 -18 9 -19 -13 -22 -7 -1 -13 -10 -14
-21 -2 -41 -5 -44 -35 -43 -16 1 -25 4 -19 8 8 5 6 9 -5 14 -14 5 -15 9 -5 21
6 8 15 14 18 13 4 0 16 0 27 1 19 2 19 2 2 12 -10 6 -14 15 -10 22 15 24 11
38 -17 52 -34 17 -41 18 -37 6 1 -5 -7 -17 -18 -25 -14 -11 -15 -14 -4 -10 12
4 16 -1 15 -16 0 -11 -5 -20 -11 -19 -5 0 -9 6 -7 11 2 6 -3 8 -11 5 -8 -3
-13 3 -13 18 0 13 4 22 8 19 9 -6 36 8 38 19 0 4 -7 16 -18 25 -10 9 -12 13
-5 8 8 -5 19 -4 28 4z m86 -237 c13 -16 12 -17 -3 -4 -10 7 -18 15 -18 17 0 8
8 3 21 -13z m34 -53 c-3 -5 -12 -10 -18 -10 -7 0 -6 4 3 10 19 12 23 12 15 0z"/>
<path d="M1544 2814 c6 -13 17 -26 25 -29 11 -4 11 -2 3 8 -7 8 -10 16 -7 18
2 3 -4 10 -14 16 -17 11 -17 9 -7 -13z"/>
<path d="M1510 2816 c0 -2 7 -7 16 -10 8 -3 12 -2 9 4 -6 10 -25 14 -25 6z"/>
<path d="M1570 2756 c16 -16 12 -26 -7 -19 -10 3 -15 3 -12 -1 4 -4 16 -8 28
-11 18 -3 20 -1 11 14 -5 10 -7 20 -5 23 3 3 -2 5 -10 5 -11 0 -12 -4 -5 -11z"/>
<path d="M1545 2690 c-4 -6 -3 -16 3 -22 6 -6 12 -6 17 2 4 6 3 16 -3 22 -6 6
-12 6 -17 -2z"/>
<path d="M1739 2844 c-8 -10 -6 -20 5 -36 9 -12 16 -19 16 -14 0 5 7 3 15 -4
17 -14 20 -40 5 -40 -5 0 -9 6 -7 13 1 7 -7 11 -21 10 -13 -2 -21 1 -18 5 2 4
0 14 -5 22 -9 13 -9 13 -7 0 1 -8 -3 -25 -10 -37 -14 -25 2 -43 21 -24 20 20
39 13 20 -7 -19 -19 -30 -21 -49 -10 -6 4 -11 2 -12 -5 -1 -14 -10 -51 -12
-54 -2 -2 -3 -6 -4 -10 -1 -5 -4 -12 -7 -18 -4 -5 -5 -18 -4 -27 2 -10 -1 -18
-7 -18 -19 0 -1 -23 19 -25 14 -1 30 10 43 27 14 20 25 26 33 20 7 -5 25 -8
40 -7 19 1 26 -2 23 -11 -5 -14 21 -40 31 -30 3 3 0 6 -7 6 -7 0 -11 2 -9 4 2
2 7 4 10 3 3 -1 14 5 24 13 17 14 17 14 7 -7 -11 -19 -10 -20 10 -15 13 3 17
7 11 9 -7 3 -9 11 -6 19 5 13 -8 19 -31 15 -5 -1 -6 4 -3 12 3 8 1 20 -5 28
-7 11 -11 11 -15 1 -4 -10 -8 -10 -20 -1 -10 9 -17 9 -21 2 -4 -5 -15 -9 -26
-7 -14 2 -16 0 -7 -9 18 -18 13 -31 -6 -15 -10 9 -23 14 -29 11 -6 -2 -11 4
-11 12 0 9 6 14 14 11 8 -3 12 -2 8 3 -3 5 1 12 7 14 11 4 11 6 0 6 -10 1 -10
5 0 24 24 42 49 50 42 13 -2 -14 0 -27 6 -31 6 -4 7 1 3 12 -3 10 -3 15 2 11
4 -4 14 -3 22 3 16 14 18 -2 2 -18 -18 -18 -1 -35 23 -22 11 6 18 7 15 2 -3
-4 1 -17 9 -28 8 -10 14 -14 14 -8 0 7 -4 14 -10 18 -5 3 -6 13 -3 22 5 13 2
15 -12 10 -15 -6 -16 -5 -6 7 10 12 9 17 -7 25 -11 6 -22 8 -24 5 -3 -2 -11 3
-19 12 -11 14 -10 15 7 12 10 -1 22 -7 26 -13 4 -5 11 -6 15 -1 4 5 2 11 -5
13 -10 4 -10 8 0 21 11 13 11 14 -2 7 -24 -15 -39 -14 -33 1 3 7 10 12 15 11
6 -1 13 5 15 13 3 11 2 11 -4 3 -6 -9 -12 -7 -22 9 -11 18 -11 20 3 15 14 -5
15 -3 7 11 -11 20 -67 24 -82 6z m27 -9 c-15 -12 -15 -13 1 -19 10 -4 14 -4
11 0 -7 7 15 34 28 34 5 0 3 -5 -4 -12 -8 -8 -8 -15 -1 -24 21 -25 -1 -34 -31
-13 -29 22 -31 46 -3 46 14 0 14 -2 -1 -12z m-31 -86 c-4 -5 -12 -9 -18 -8 -9
0 -8 2 1 6 6 2 9 10 6 15 -4 7 -2 8 5 4 6 -4 9 -12 6 -17z m-7 -58 c-2 -9 -12
-21 -23 -28 -11 -7 -14 -12 -7 -13 6 0 11 -6 10 -12 -2 -7 5 -12 15 -12 17 2
17 1 1 -17 -9 -10 -21 -16 -27 -12 -6 4 -8 0 -5 -8 4 -10 -1 -15 -13 -15 -11
0 -15 4 -10 11 5 5 7 18 6 27 -2 10 1 20 6 24 5 3 7 10 4 15 -4 5 1 12 9 15 9
3 16 10 16 16 0 5 -4 6 -10 3 -5 -3 -7 0 -4 8 7 19 35 17 32 -2z m110 -1 c-7
-10 -14 -17 -17 -15 -4 4 18 35 25 35 2 0 -1 -9 -8 -20z m1 -53 c14 4 14 3 1
-6 -13 -10 -13 -12 0 -20 8 -5 19 -7 25 -4 5 4 7 3 3 -1 -3 -4 -10 -8 -15 -8
-4 0 -13 -4 -19 -9 -8 -7 -11 -4 -10 8 0 10 -5 17 -11 16 -7 -2 -13 3 -13 10
0 9 -2 9 -9 -1 -7 -11 -9 -10 -14 3 -4 9 -3 13 2 10 5 -3 13 0 16 6 5 7 11 7
17 1 6 -6 18 -8 27 -5z"/>
<path d="M1687 2617 c-3 -8 1 -14 9 -14 16 0 19 13 5 21 -5 3 -11 0 -14 -7z"/>
<path d="M2094 2834 c-1 -13 2 -24 7 -24 5 0 9 -5 9 -11 0 -5 -6 -7 -12 -3 -8
5 -7 0 2 -11 14 -17 13 -18 -2 -12 -12 4 -15 2 -11 -9 3 -7 10 -14 17 -14 6 0
4 -5 -4 -10 -10 -6 -11 -10 -2 -10 6 0 12 -5 12 -11 0 -5 -4 -8 -9 -4 -5 3
-12 1 -15 -4 -4 -5 2 -8 11 -6 10 2 22 4 27 4 5 1 3 8 -4 16 -8 10 -9 15 -2
15 6 0 16 -9 22 -19 12 -23 13 -31 3 -30 -20 3 -33 -2 -33 -12 0 -8 5 -8 15 1
9 8 15 9 15 2 0 -20 -23 -25 -35 -9 -9 13 -11 7 -11 -33 1 -31 4 -46 10 -40
17 17 27 11 14 -9 -7 -11 -16 -17 -22 -14 -5 3 -6 2 -3 -3 5 -8 50 -10 67 -4
3 1 10 1 15 0 45 -9 59 -10 45 -1 -8 5 -18 7 -22 5 -10 -6 -11 10 -1 19 3 4
12 2 19 -4 8 -6 14 -6 18 0 9 14 -14 26 -53 26 -24 1 -35 6 -37 18 -1 9 2 19
6 22 5 3 6 13 3 22 -4 9 -2 14 3 10 6 -3 15 3 22 13 10 16 9 18 -8 15 -21 -4
-36 21 -17 29 9 3 9 5 0 5 -7 1 -13 6 -13 12 0 6 7 8 16 5 8 -3 12 -2 9 3 -3
5 -1 12 4 16 5 3 15 -3 21 -12 11 -17 11 -17 6 0 -3 9 -1 17 5 17 6 0 8 4 5 8
-2 4 0 14 6 22 7 11 8 6 4 -17 -3 -18 -2 -33 2 -33 11 0 13 49 3 68 -10 18
-71 25 -68 9 1 -5 -4 -12 -11 -14 -7 -3 -11 1 -10 8 2 7 -6 14 -17 15 -14 1
-20 -6 -21 -22z m31 7 c-9 -16 15 -24 31 -10 20 17 54 22 54 8 0 -5 -5 -7 -12
-3 -7 5 -9 2 -6 -8 4 -8 2 -21 -4 -29 -8 -11 -8 -9 -4 6 l6 20 -16 -20 c-8
-11 -21 -19 -29 -17 -9 2 -12 -6 -11 -22 2 -17 -1 -23 -10 -19 -17 6 -18 23
-1 24 9 0 9 2 0 5 -7 3 -10 11 -7 19 3 7 1 16 -5 19 -12 8 -3 36 11 36 5 0 7
-4 3 -9z m18 -183 c-20 -28 -3 -56 32 -52 22 2 24 0 14 -12 -6 -8 -14 -12 -17
-9 -3 3 -12 -1 -20 -8 -13 -10 -14 -9 -7 2 6 11 4 13 -10 7 -15 -5 -16 -4 -6
8 12 15 -1 32 -17 22 -4 -2 -8 6 -8 19 0 14 5 21 12 18 7 -2 15 0 19 6 3 6 9
11 12 11 3 0 1 -6 -4 -12z"/>
<path d="M2159 2823 c-13 -16 -12 -17 4 -4 9 7 17 15 17 17 0 8 -8 3 -21 -13z"/>
<path d="M2110 2826 c0 -2 8 -10 18 -17 15 -13 16 -12 3 4 -13 16 -21 21 -21
13z"/>
<path d="M2379 2856 c-1 -1 -3 -14 -5 -31 -2 -22 -1 -26 6 -15 5 8 10 13 11
10 0 -3 2 -13 4 -22 2 -10 -2 -15 -9 -12 -7 3 -12 -5 -13 -18 0 -13 1 -17 4
-10 3 6 11 12 19 12 8 0 14 -6 14 -12 0 -9 3 -8 9 1 6 10 9 -7 7 -50 -1 -35
-5 -69 -9 -76 -4 -6 -2 -15 4 -19 8 -4 9 -3 5 4 -7 12 6 17 17 6 8 -8 -3 -35
-12 -30 -4 3 -7 -3 -7 -13 0 -21 39 -22 58 -2 7 7 9 12 3 11 -20 -4 -35 0 -35
11 0 6 9 8 23 4 15 -4 18 -3 8 3 -11 8 -11 10 0 15 10 4 10 6 2 6 -7 1 -13 6
-13 12 0 5 4 8 9 4 5 -3 13 0 17 6 4 7 3 9 -4 5 -6 -3 -14 -1 -17 5 -4 5 -13
8 -21 5 -7 -3 -16 -1 -19 5 -4 5 -1 8 7 7 7 -2 12 4 10 14 -2 12 3 16 17 13
12 -2 23 0 26 5 7 11 -30 32 -39 23 -9 -10 -7 3 6 32 6 14 15 25 20 25 11 0
10 -14 -3 -27 -7 -7 -6 -12 5 -16 9 -4 13 -1 10 6 -2 7 4 13 16 14 13 1 18 -2
13 -10 -4 -7 0 -6 10 2 23 18 21 34 -3 26 -11 -4 -20 -2 -20 4 0 6 3 10 8 10
4 -1 14 -1 22 0 13 1 13 3 0 10 -8 6 -18 7 -24 4 -5 -4 -7 1 -3 10 7 20 -8 30
-44 32 -24 1 -26 -2 -22 -24 2 -14 1 -22 -3 -18 -4 4 -13 2 -21 -4 -9 -8 -13
-8 -13 -1 0 6 5 14 11 17 16 11 5 28 -19 30 -12 1 -23 1 -23 1z m34 -16 c3 6
4 5 3 -2 -4 -18 -28 -16 -34 2 -4 13 -3 13 10 2 11 -9 18 -9 21 -2z m91 -21
c0 -20 -4 -24 -27 -23 -15 1 -27 -4 -26 -10 1 -6 1 -18 0 -26 -1 -12 -4 -11
-12 3 -6 9 -14 15 -19 12 -4 -3 -10 2 -14 10 -3 8 -2 14 2 14 4 -1 10 0 15 1
4 1 13 3 20 4 6 0 13 8 13 16 1 8 2 18 3 21 0 3 11 5 23 4 17 -1 22 -8 22 -26z
m-60 -109 c-6 -6 -10 -3 -10 10 0 13 4 16 10 10 7 -7 7 -13 0 -20z m16 -65
c-10 -12 -10 -15 0 -15 8 0 10 -3 7 -6 -4 -4 -14 -1 -23 7 -15 12 -14 14 3 20
26 11 27 11 13 -6z"/>
<path d="M2470 2826 c7 -7 13 -7 20 0 6 6 3 10 -10 10 -13 0 -16 -4 -10 -10z"/>
<path d="M2531 2838 c9 -16 29 -17 29 -2 0 3 -5 2 -12 -2 -7 -5 -9 -2 -6 8 4
8 0 15 -7 15 -10 0 -11 -5 -4 -19z"/>
<path d="M2838 2841 c5 -14 4 -14 -13 -1 -17 13 -18 13 -10 0 16 -26 18 -63 3
-54 -10 6 -10 4 1 -9 7 -9 10 -17 5 -17 -5 0 -2 -6 6 -13 16 -13 25 -37 14
-37 -4 0 -13 8 -21 18 -13 16 -13 16 -5 -3 5 -11 7 -27 5 -35 -4 -13 -3 -13 6
0 6 8 11 13 12 10 0 -3 2 -16 5 -29 4 -20 2 -22 -10 -12 -17 15 -28 1 -15 -19
5 -8 9 -10 9 -4 0 6 7 11 15 11 8 0 15 -3 15 -6 0 -12 -18 -33 -26 -32 -11 2
-14 -38 -3 -44 4 -3 10 -1 14 5 3 5 11 10 16 10 6 0 8 -4 5 -8 -3 -5 1 -9 9
-9 11 0 12 4 4 13 -8 10 -5 12 10 11 12 -1 20 -6 17 -12 -2 -6 7 -11 20 -11
16 0 21 3 14 10 -13 13 -13 36 1 36 5 0 8 -4 5 -9 -3 -5 2 -15 12 -22 15 -13
16 -12 3 4 -11 13 -11 17 -1 17 22 0 2 13 -24 15 -19 2 -23 -1 -19 -13 4 -11
-4 -8 -22 9 -22 22 -25 30 -17 45 6 11 14 19 19 19 4 0 7 7 6 15 -1 11 3 9 13
-4 8 -11 14 -14 14 -7 0 7 5 9 13 5 8 -5 8 -3 -2 9 -7 9 -17 14 -22 11 -5 -3
-9 -1 -9 5 0 5 -11 8 -25 6 -14 -1 -28 2 -31 6 -5 9 11 13 30 10 5 -1 4 4 -3
12 -9 12 -9 16 1 20 10 4 10 6 0 6 -10 1 -10 5 2 16 8 9 13 21 10 28 -3 8 4
13 17 14 15 1 18 -1 10 -11 -7 -9 -7 -16 2 -26 10 -10 9 -12 -5 -7 -10 4 -18
2 -18 -3 0 -6 13 -9 29 -8 16 1 28 5 25 9 -2 4 0 11 6 14 7 4 7 11 2 18 -5 7
-8 19 -7 28 2 9 -3 16 -11 16 -10 0 -11 -4 -3 -14 14 -16 -3 -17 -19 -1 -18
18 -49 20 -56 3 -3 -8 1 -21 10 -29 8 -8 10 -17 5 -20 -5 -3 -11 1 -15 9 -3 9
-12 12 -22 8 -15 -6 -15 -4 0 19 13 20 14 25 2 25 -9 0 -12 -6 -8 -16z m52 -1
c0 -5 -5 -10 -11 -10 -5 0 -7 5 -4 10 3 6 8 10 11 10 2 0 4 -4 4 -10z m65 -29
c7 -12 -12 -24 -25 -16 -11 7 -4 25 10 25 5 0 11 -4 15 -9z m-100 -11 c-3 -5
-2 -10 2 -10 5 0 9 -11 9 -24 0 -18 -4 -22 -19 -18 -14 4 -16 7 -5 13 10 7 10
9 -2 9 -13 0 -13 1 0 10 8 5 11 10 7 10 -9 0 1 20 9 20 3 0 2 -4 -1 -10z m19
-107 c-3 9 -1 17 5 17 6 0 11 -2 11 -4 0 -2 3 -12 7 -22 4 -11 3 -15 -5 -10
-6 3 -15 -2 -21 -11 -6 -10 -11 -13 -11 -8 -1 6 -4 21 -6 35 -4 24 -4 24 11 5
12 -16 14 -17 9 -2z m12 -85 c10 -12 13 -18 6 -14 -7 4 -23 1 -35 -7 -21 -14
-23 -13 -25 6 -1 17 1 19 8 7 7 -11 10 -11 10 -2 0 8 5 10 12 6 8 -5 9 -2 5 9
-9 23 -4 21 19 -5z"/>
<path d="M3145 2849 c-4 -5 -10 -7 -15 -4 -4 3 -7 -13 -5 -35 2 -27 0 -38 -7
-34 -7 4 -8 2 -4 -5 14 -21 17 -61 5 -61 -8 0 -8 -4 1 -15 10 -12 10 -18 -1
-32 -10 -11 -10 -14 -1 -9 7 4 12 1 12 -8 0 -9 -6 -16 -12 -16 -9 0 -8 -4 2
-10 10 -6 11 -10 3 -10 -8 0 -11 -9 -9 -22 2 -17 10 -23 32 -25 21 -2 25 0 14
7 -8 5 -13 10 -10 11 3 0 13 2 23 4 14 3 17 -1 13 -13 -5 -14 -3 -13 9 2 9 12
11 24 6 35 -14 25 -14 33 1 42 10 7 10 9 0 9 -7 0 -10 4 -7 10 4 6 -1 7 -10 3
-15 -5 -15 -3 -4 15 7 11 18 18 24 14 5 -3 4 1 -2 10 -7 8 -9 19 -5 24 4 4 -1
2 -10 -5 -22 -17 -23 -8 -2 24 15 23 15 25 0 31 -21 8 -10 25 12 18 13 -5 14
-4 3 4 -8 6 -10 15 -6 22 6 9 4 11 -5 5 -9 -6 -12 -4 -8 6 7 17 -28 24 -37 8z
m29 -15 c7 -19 -2 -37 -14 -29 -5 3 -12 0 -16 -6 -4 -7 -3 -9 4 -5 6 3 13 2
16 -3 3 -5 -1 -12 -10 -15 -17 -6 -10 -26 9 -26 8 0 8 3 -1 9 -11 6 -9 10 7
14 18 4 19 2 10 -14 -5 -10 -14 -19 -20 -19 -5 0 -2 -11 6 -24 12 -18 13 -26
4 -32 -8 -5 -9 -3 -4 6 6 9 4 11 -5 5 -10 -6 -8 -12 9 -26 21 -17 21 -18 1
-16 -11 1 -20 5 -20 10 0 4 -4 6 -8 3 -10 -6 -9 35 1 52 5 6 4 12 0 12 -11 0
-11 90 0 108 11 17 24 15 31 -4z m-4 -196 c0 -5 6 -6 13 -2 6 4 9 4 5 -1 -4
-4 -3 -16 2 -26 8 -15 7 -17 -9 -14 -11 2 -25 -3 -32 -11 -16 -19 -28 -18 -25
4 2 11 12 17 30 16 20 -1 24 2 15 12 -6 7 -17 10 -25 7 -9 -3 -12 0 -9 9 6 16
35 20 35 6z"/>
<path d="M3144 2829 c-4 -7 -3 -9 4 -5 5 3 13 0 15 -6 4 -9 6 -10 6 -1 1 17
-16 25 -25 12z"/>
<path d="M3226 2845 c-3 -8 2 -21 10 -29 20 -20 19 -29 -3 -37 -16 -7 -15 -8
5 -8 12 -1 22 -6 22 -12 0 -5 -4 -8 -9 -5 -5 3 -15 -2 -22 -12 -13 -15 -12
-16 4 -3 20 15 23 2 5 -18 -10 -11 -10 -13 0 -7 6 4 12 3 12 -2 0 -6 -7 -13
-15 -16 -12 -4 -13 -10 -6 -24 7 -13 6 -23 -2 -32 -10 -12 -9 -12 6 -1 20 16
22 9 5 -19 -11 -17 -10 -22 2 -30 8 -5 18 -6 24 -3 5 4 7 -2 3 -13 -7 -18 -7
-18 8 0 21 28 19 37 -9 32 -18 -3 -23 -1 -20 9 3 7 13 12 23 10 10 -2 18 3 18
11 0 13 -11 18 -31 15 -5 -1 -6 5 -2 14 3 9 6 19 6 23 0 3 6 -2 13 -13 11 -14
16 -15 22 -5 5 8 4 11 -2 7 -6 -4 -14 0 -17 9 -9 25 -8 26 18 8 15 -9 22 -21
19 -30 -3 -8 0 -14 7 -14 6 0 8 -4 5 -10 -3 -5 0 -7 9 -4 10 4 14 0 12 -13 -4
-21 22 -50 45 -50 10 0 15 11 15 38 0 21 -4 35 -9 32 -5 -3 -7 0 -5 8 3 8 10
13 16 12 6 -1 7 7 4 19 -5 20 -6 21 -12 3 -4 -12 -9 -15 -13 -8 -4 6 1 19 10
29 16 16 16 17 1 12 -10 -4 -19 -1 -22 8 -4 11 -1 14 12 10 16 -5 19 -1 19 29
0 19 -5 35 -11 35 -5 0 -3 6 5 13 8 6 12 11 10 10 -2 -2 -10 2 -18 9 -11 8
-12 7 -7 -6 4 -11 2 -16 -7 -14 -8 2 -14 -5 -14 -14 0 -32 -13 -29 -49 15 -19
24 -42 44 -50 44 -8 0 -15 -3 -14 -6 2 -20 -3 -31 -12 -26 -5 3 -7 12 -3 20 3
8 3 15 0 15 -3 0 -7 -7 -11 -15z m105 -63 c23 -26 25 -40 4 -22 -15 13 -16 11
-18 -27 -2 -25 -19 -34 -36 -20 -8 7 -17 11 -20 11 -3 -1 -4 3 -2 10 8 24 9
56 2 56 -4 0 -8 7 -8 15 0 13 3 12 19 -2 13 -12 15 -19 8 -21 -9 -3 -9 -7 1
-13 12 -8 11 -11 -1 -19 -11 -7 -11 -10 -2 -10 7 0 11 -4 7 -9 -3 -5 -1 -12 4
-15 5 -4 8 2 7 11 -2 10 2 22 8 26 8 6 7 10 -2 14 -10 4 -10 8 0 21 10 13 10
14 0 8 -7 -4 -11 -3 -10 2 2 6 -1 10 -6 10 -13 0 -26 24 -19 36 4 5 15 -2 25
-15 11 -13 28 -34 39 -47z m65 -18 c0 -13 -3 -21 -7 -18 -4 2 -15 1 -24 -2
-10 -4 -13 -9 -6 -13 6 -4 12 -16 14 -26 1 -11 7 -26 11 -34 6 -10 5 -12 -2
-7 -17 10 -15 -9 3 -24 14 -11 15 -58 2 -52 -4 1 -14 5 -23 9 -13 5 -13 7 -2
14 10 7 11 9 0 9 -7 0 -11 4 -7 9 3 6 -4 15 -15 21 -11 6 -18 15 -15 20 3 5 1
12 -5 15 -7 4 -7 11 -2 18 5 7 8 20 7 30 -2 10 2 17 8 16 25 -3 38 1 32 10 -3
5 -1 12 4 16 6 3 7 13 4 22 -6 15 -5 15 8 3 8 -7 15 -24 15 -36z m-142 -79
c-4 -8 -11 -12 -16 -9 -6 4 -5 10 3 15 19 12 19 11 13 -6z"/>
<path d="M3334 2705 c-13 -10 -14 -13 -3 -10 10 4 16 0 16 -10 0 -8 -5 -15
-10 -15 -5 0 2 -10 17 -21 15 -12 25 -27 22 -35 -3 -7 -2 -16 3 -18 16 -10 8
30 -10 49 -22 25 -24 36 -7 46 10 7 10 9 0 9 -7 0 -10 5 -7 10 9 14 2 12 -21
-5z"/>
<path d="M3365 2849 c-11 -16 -1 -19 13 -3 7 8 8 14 3 14 -5 0 -13 -5 -16 -11z"/>
<path d="M3444 2849 c-3 -6 2 -21 10 -34 12 -19 13 -25 4 -25 -9 0 -8 -3 2
-10 8 -5 11 -10 6 -10 -5 0 -3 -6 3 -13 6 -8 9 -16 6 -19 -5 -5 3 -6 45 -10
11 -1 22 -8 25 -16 3 -9 -1 -12 -15 -7 -12 4 -20 2 -20 -5 0 -6 -5 -8 -10 -5
-6 4 -7 11 -4 17 4 7 2 8 -4 4 -9 -5 -7 -14 4 -32 9 -13 13 -24 9 -24 -4 0 0
-11 9 -25 12 -18 13 -25 4 -25 -9 0 -8 -3 2 -10 8 -5 11 -10 6 -10 -21 0 15
-24 38 -25 17 0 22 4 18 14 -4 10 -1 12 9 6 8 -4 11 -4 6 0 -4 5 0 19 9 33 13
20 14 26 3 33 -8 5 -10 9 -6 9 4 0 3 9 -2 19 -8 14 -7 20 3 24 15 6 26 -1 26
-15 0 -5 -4 -6 -10 -3 -6 4 -7 -1 -3 -11 5 -15 7 -15 15 0 5 9 6 21 3 26 -3 6
-1 10 6 10 7 0 9 3 6 6 -3 4 -1 16 5 28 7 11 13 30 15 40 2 11 9 26 16 35 8
10 8 13 0 8 -6 -4 -14 -1 -16 5 -4 10 -6 10 -6 0 -1 -8 -6 -10 -13 -6 -10 6
-10 4 0 -7 6 -7 12 -18 12 -24 -1 -5 -9 0 -20 13 -23 28 -40 21 -34 -13 2 -14
1 -24 -3 -23 -5 2 -10 -1 -11 -7 -2 -5 -8 -17 -13 -26 -5 -10 -4 -20 3 -27 9
-9 9 -12 1 -12 -18 0 -45 31 -39 46 3 7 0 16 -6 20 -7 4 -8 3 -4 -4 5 -8 0
-12 -13 -12 -24 0 -28 15 -6 24 8 3 15 10 15 17 0 6 -7 8 -15 5 -8 -3 -21 -8
-28 -11 -8 -3 -13 3 -14 16 -2 18 0 19 14 7 14 -11 15 -11 8 1 -6 11 -4 13 11
8 18 -7 18 -7 0 8 -13 10 -15 15 -6 15 22 0 3 12 -25 15 -14 2 -28 -1 -31 -6z
m26 -11 c0 6 4 12 8 12 5 0 9 -6 9 -14 0 -18 -30 -14 -35 5 -3 11 -1 11 7 -1
7 -10 11 -11 11 -2z m184 -79 c-3 -6 -12 -5 -22 3 -13 11 -14 11 -4 -8 7 -14
7 -25 0 -35 -8 -11 -9 -10 -4 6 6 19 5 19 -8 1 -18 -23 -40 -12 -26 13 5 10 6
22 2 26 -4 3 0 5 8 3 11 -2 15 5 14 27 l-2 29 24 -28 c14 -15 22 -32 18 -37z
m-158 2 c0 -16 -3 -17 -14 -9 -12 10 -7 19 13 28 1 0 1 -9 1 -19z m74 -73 c0
-5 -6 -6 -12 -2 -10 6 -10 4 0 -8 8 -10 9 -19 4 -22 -6 -3 -12 1 -16 9 -3 8
-12 12 -21 9 -13 -6 -21 6 -11 17 9 9 56 6 56 -3z m23 -12 c4 -10 1 -13 -8 -9
-8 3 -12 9 -9 14 7 12 11 11 17 -5z m-60 -28 c-4 -19 -3 -20 6 -8 6 8 11 11
11 6 0 -6 5 -5 12 2 8 8 17 8 30 1 18 -10 18 -11 -2 -40 -12 -16 -26 -27 -31
-24 -5 4 -9 1 -9 -6 0 -16 -13 -3 -16 16 -3 18 7 19 25 3 11 -11 12 -10 6 1
-6 10 -4 12 6 6 12 -7 12 -6 1 7 -8 9 -20 14 -27 12 -18 -7 -40 32 -22 39 6 3
13 6 14 6 0 1 -1 -9 -4 -21z"/>
<path d="M3571 2643 c-1 -17 16 -25 25 -12 4 7 3 9 -4 5 -5 -3 -13 0 -15 6 -4
9 -6 10 -6 1z"/>
<path d="M3741 2847 c-5 -5 -7 -16 -4 -25 5 -11 3 -13 -7 -7 -9 6 -11 4 -5 -5
4 -7 2 -16 -6 -22 -11 -7 -10 -8 5 -6 10 2 21 -3 24 -11 3 -8 0 -11 -7 -7 -6
4 -11 2 -11 -3 0 -6 -5 -11 -11 -11 -5 0 -7 5 -3 12 5 7 3 8 -6 3 -10 -6 -9
-11 5 -22 16 -11 16 -13 3 -13 -9 0 -21 -13 -27 -30 -5 -16 -7 -30 -4 -30 3 0
-2 -10 -13 -22 -15 -19 -16 -20 -1 -9 10 8 17 9 17 3 0 -6 -9 -17 -20 -25 -17
-12 -18 -16 -6 -20 9 -4 18 -2 21 3 4 6 12 10 18 10 7 -1 1 -10 -12 -20 -26
-22 -46 -27 -35 -8 5 7 3 8 -5 3 -22 -13 4 -28 28 -16 16 9 21 9 21 -1 0 -10
3 -9 9 1 5 8 8 23 6 33 -4 21 5 23 24 6 8 -8 11 -8 8 -2 -4 7 1 18 10 25 15
12 16 12 10 -3 -3 -10 -2 -20 4 -23 5 -4 12 1 15 9 3 9 10 13 15 10 5 -3 7 -9
5 -13 -3 -4 0 -13 6 -21 8 -12 9 -12 4 3 -3 9 -2 17 3 17 15 0 20 -13 11 -30
-6 -12 -5 -17 5 -17 8 0 17 7 20 16 6 14 8 14 19 -2 12 -16 14 -15 14 8 0 14
-4 25 -9 25 -5 0 -6 7 -3 15 3 8 2 20 -2 27 -5 7 -9 17 -9 22 0 5 -8 10 -17
12 -22 3 -52 26 -55 41 -1 6 5 14 13 17 11 4 15 2 11 -8 -6 -16 11 -36 30 -36
7 0 13 8 12 18 0 10 -3 12 -6 5 -7 -20 -19 -15 -20 7 -1 11 2 18 8 15 5 -4 9
-2 9 4 0 5 -5 13 -10 16 -6 4 -8 10 -5 15 3 5 1 11 -4 15 -6 3 -8 12 -4 20 3
8 0 15 -6 15 -6 0 -10 5 -8 12 2 15 -58 19 -72 5z m43 -14 c5 -11 -6 -12 -42
-4 -2 1 -1 5 2 9 8 13 35 10 40 -5z m21 8 c-3 -5 -1 -12 4 -16 6 -3 8 -12 4
-20 -3 -8 -1 -15 4 -15 5 0 9 -8 10 -18 1 -19 -3 -20 -54 -23 -24 -1 -25 -2
-7 -13 11 -6 19 -18 19 -26 -1 -8 4 -25 11 -37 11 -17 11 -23 0 -32 -9 -7 -16
-7 -25 2 -10 9 -14 8 -22 -6 -6 -9 -15 -15 -20 -11 -5 3 -22 -2 -37 -11 l-27
-16 22 19 c17 15 19 22 10 31 -9 9 -8 11 8 5 11 -4 23 -12 27 -18 4 -6 6 2 4
17 -1 15 -7 26 -12 25 -5 -2 -8 -6 -7 -10 2 -4 -3 -5 -11 -2 -18 7 -9 42 15
55 13 6 19 6 19 -1 0 -5 -7 -10 -15 -10 -21 0 -19 -15 3 -17 19 -2 28 32 11
43 -6 3 -3 11 8 19 15 11 15 15 4 29 -16 19 -10 28 21 30 16 1 22 7 20 19 -2
9 2 17 8 17 6 0 9 -4 5 -9z m7 -160 c-1 -7 7 -10 22 -7 18 3 23 1 19 -10 -3
-8 0 -14 7 -14 6 0 10 -8 8 -17 -1 -10 1 -25 6 -33 5 -8 6 -12 1 -8 -4 4 -15
2 -23 -5 -12 -9 -14 -9 -9 0 5 7 -3 19 -18 29 -18 12 -23 20 -16 27 7 7 7 15
0 24 -7 7 -8 13 -3 13 5 0 2 5 -6 11 -13 9 -13 10 0 6 8 -2 14 -10 12 -16z"/>
<path d="M3786 2788 c-9 -17 -14 -34 -11 -36 3 -3 5 0 5 6 0 6 8 9 18 6 14 -5
15 -4 2 5 -8 6 -10 11 -5 11 6 0 11 9 11 20 0 26 -2 26 -20 -12z"/>
<path d="M3756 2801 c-4 -5 -2 -12 3 -15 5 -4 12 -2 15 3 4 5 2 12 -3 15 -5 4
-12 2 -15 -3z"/>
<path d="M3822 2641 c-11 -7 -10 -10 3 -15 20 -7 38 1 30 15 -7 11 -16 11 -33
0z"/>
<path d="M4094 2848 c-4 -7 -4 -10 1 -6 10 9 35 -10 35 -25 0 -7 -4 -7 -12 1
-7 7 -15 12 -18 12 -11 0 -7 -85 4 -92 7 -5 6 -8 -2 -8 -7 0 -11 -4 -7 -9 3
-5 1 -12 -4 -16 -10 -5 -7 -42 4 -53 2 -3 0 -11 -7 -19 -9 -11 -7 -12 8 -6 17
6 17 5 6 -10 -12 -13 -12 -19 0 -34 13 -19 68 -27 68 -11 0 5 -8 7 -18 4 -15
-5 -18 -1 -18 24 0 25 3 29 20 25 12 -3 15 -2 8 1 -10 5 -9 9 5 20 17 13 17
14 0 8 -9 -3 -23 -1 -31 5 -7 6 -16 8 -19 4 -4 -3 -7 0 -7 8 0 8 9 15 20 16
11 1 19 -2 17 -7 -3 -12 17 -13 21 -1 2 6 -2 11 -10 11 -10 0 -9 3 2 10 10 6
11 10 3 10 -7 0 -13 7 -13 16 0 14 3 14 15 4 13 -11 14 -10 9 4 -4 10 -13 15
-20 12 -15 -6 -7 25 10 36 7 5 7 8 -1 8 -7 0 -13 5 -13 11 0 5 4 8 8 5 5 -3 9
8 10 24 0 22 -4 28 -18 27 -12 -1 -16 -6 -12 -17 4 -12 1 -11 -15 3 -17 15
-23 16 -29 5z m56 -27 c-6 -12 -8 -27 -4 -33 4 -6 3 -8 -4 -4 -12 7 -10 -53 2
-73 4 -6 4 -11 -1 -12 -4 0 -18 -2 -31 -5 -21 -4 -22 -3 -7 19 8 13 12 27 8
31 -5 4 -8 23 -8 41 -1 27 2 32 12 24 9 -8 15 -4 24 15 7 14 14 24 16 22 3 -2
0 -14 -7 -25z m-17 -177 c-3 -15 -20 -15 -26 0 -4 9 0 13 11 12 9 -2 16 -7 15
-12z m-13 -34 c-13 -9 -13 -11 0 -20 9 -6 10 -10 3 -10 -15 0 -26 17 -18 30 3
6 12 10 18 10 7 0 6 -4 -3 -10z"/>
<path d="M4219 2851 c11 -7 11 -10 0 -14 -9 -4 -6 -6 5 -4 10 1 21 -3 23 -10
3 -8 -3 -11 -16 -8 -11 2 -24 -1 -27 -7 -4 -7 -2 -8 4 -4 7 4 12 3 12 -3 0 -5
-5 -13 -11 -16 -6 -5 -4 -16 7 -32 16 -25 16 -26 -1 -19 -15 5 -16 4 -5 -9 10
-12 10 -15 0 -15 -8 0 -10 -3 -6 -7 4 -5 13 -1 19 7 16 21 44 24 44 5 0 -9 -5
-14 -12 -11 -6 2 -22 -5 -36 -16 -13 -11 -19 -17 -12 -14 15 8 37 -30 23 -39
-5 -3 -10 2 -11 12 0 11 -3 13 -6 5 -3 -7 1 -20 9 -29 11 -15 11 -16 -4 -10
-12 4 -15 2 -11 -9 3 -7 10 -14 17 -14 7 0 6 -3 -2 -8 -8 -5 3 -8 27 -8 22 0
37 4 35 8 -3 4 -12 5 -22 2 -14 -5 -15 -4 -2 5 10 7 11 14 5 19 -15 10 -15 64
-1 59 14 -5 16 70 3 91 -5 6 -4 12 2 12 5 0 8 9 6 20 -2 11 0 22 6 25 5 4 9
-1 9 -10 0 -11 5 -15 14 -12 9 3 21 -4 30 -19 9 -13 13 -24 8 -24 -5 0 -9 -6
-9 -14 0 -8 5 -12 12 -10 6 3 11 -6 11 -22 0 -24 -1 -25 -14 -7 -12 16 -13 16
-11 -12 2 -16 8 -36 14 -44 8 -12 6 -13 -7 -8 -10 3 -21 1 -25 -6 -11 -18 -10
-65 1 -63 30 6 56 19 56 28 0 6 8 16 17 23 20 14 27 75 9 75 -6 0 -4 5 4 10 9
6 10 10 3 10 -6 0 -15 -4 -18 -10 -3 -5 -11 -10 -17 -10 -7 0 -7 4 1 13 6 8 7
17 3 22 -4 4 2 5 14 1 18 -6 21 -2 21 26 1 27 -1 29 -7 13 -9 -22 -10 -21 -14
12 -2 15 2 20 13 16 9 -2 5 2 -9 10 -14 9 -29 13 -33 10 -5 -3 -6 5 -2 18 5
19 4 21 -4 9 -9 -13 -14 -9 -13 10 0 3 -19 5 -43 6 -35 0 -42 -3 -37 -15 4
-13 2 -13 -15 2 -11 9 -24 17 -29 17 -5 0 -3 -4 5 -9z m71 -13 c0 -10 2 -10 8
-1 6 10 12 10 28 -3 10 -8 12 -13 4 -9 -8 4 -6 0 4 -9 10 -8 23 -13 27 -10 5
3 9 -2 9 -10 0 -27 1 -31 16 -47 12 -14 11 -15 -8 -14 -13 1 -23 7 -23 12 0 6
-3 14 -7 18 -4 4 -4 14 -1 23 4 10 2 13 -5 8 -6 -3 -13 -2 -17 4 -4 6 -11 8
-16 5 -5 -3 -6 1 -3 9 3 9 0 14 -8 12 -22 -3 -39 -17 -33 -27 4 -5 1 -10 -4
-10 -26 -3 -30 -4 -37 -11 -3 -4 3 -6 14 -3 15 2 19 0 15 -11 -3 -8 1 -14 8
-14 11 0 11 -3 -1 -10 -23 -15 -53 25 -38 50 7 10 17 18 22 17 6 -1 15 8 21
21 11 24 25 30 25 10z m-35 -160 c-19 -11 -30 -5 -21 11 4 6 14 7 22 4 15 -5
14 -7 -1 -15z m141 -34 c-2 -12 -10 -18 -21 -16 -10 2 -14 -1 -11 -7 8 -12
-31 -54 -43 -47 -13 8 -5 51 10 52 27 2 30 4 22 17 -14 23 -11 35 8 32 10 -2
19 2 19 8 0 7 5 5 10 -4 5 -8 7 -24 6 -35z m-146 -44 c0 -5 -4 -10 -10 -10 -5
0 -10 5 -10 10 0 6 5 10 10 10 6 0 10 -4 10 -10z"/>
<path d="M4380 2660 c0 -5 -8 -7 -17 -3 -19 6 -18 5 7 -14 13 -10 16 -8 17 8
1 10 0 19 -3 19 -2 0 -4 -4 -4 -10z"/>
<path d="M4320 2616 c0 -2 8 -10 18 -17 15 -13 16 -12 3 4 -13 16 -21 21 -21
13z"/>
<path d="M4740 2845 c-8 -9 -8 -15 0 -20 7 -4 7 -12 0 -24 -5 -10 -6 -21 -3
-25 4 -4 8 -22 10 -42 2 -25 -1 -33 -10 -28 -9 6 -9 4 -1 -7 12 -16 12 -29 1
-46 -4 -6 -3 -14 2 -18 6 -3 9 -11 7 -18 -1 -7 -1 -9 1 -4 3 4 9 7 14 7 11 0
8 -22 -4 -31 -5 -3 -1 -9 8 -12 9 -4 13 -3 10 3 -4 6 4 9 17 7 15 -1 22 3 20
11 -1 8 2 12 8 10 19 -6 14 -22 -11 -35 -22 -11 -22 -12 10 -11 21 1 28 4 19
9 -7 5 -11 9 -8 10 3 0 13 2 23 4 12 2 17 -1 14 -10 -4 -9 1 -11 16 -7 12 3
16 7 9 10 -19 6 -34 39 -17 39 7 0 11 -6 8 -14 -3 -7 0 -13 7 -13 6 0 8 5 5
10 -3 6 -1 10 4 10 6 0 11 -5 11 -12 0 -19 11 -2 16 26 2 14 0 26 -6 26 -5 0
-9 -5 -7 -11 1 -6 -4 -14 -11 -16 -11 -4 -12 -1 -3 16 7 12 9 26 6 31 -3 5 -1
11 4 14 5 4 11 -2 14 -11 2 -10 4 -4 4 14 0 18 -4 30 -9 27 -4 -3 -8 0 -8 5 0
6 5 11 11 11 5 0 8 4 4 9 -3 5 -1 12 5 16 6 4 7 12 3 18 -4 6 -7 27 -7 47 -1
35 -3 36 -47 31 -6 0 -9 -7 -6 -15 3 -8 3 -17 -1 -20 -13 -14 -10 -66 4 -66 8
0 14 5 14 10 0 18 16 10 17 -9 1 -14 -4 -18 -22 -17 -17 2 -22 -1 -17 -12 3
-9 1 -13 -5 -9 -5 3 -10 0 -10 -8 0 -8 4 -12 8 -10 3 3 13 -3 20 -12 12 -14
12 -16 -2 -11 -12 5 -16 1 -15 -14 1 -14 -6 -22 -19 -25 -58 -11 -75 -11 -70
-3 3 6 0 7 -8 4 -8 -3 -14 2 -14 11 0 9 6 14 14 10 7 -3 21 -8 31 -11 14 -5
15 -4 2 5 -8 6 -10 11 -5 11 6 0 -3 9 -20 20 -16 11 -24 20 -17 20 7 0 11 4 7
9 -3 5 0 13 6 17 8 4 9 3 5 -4 -4 -7 -2 -12 4 -12 6 0 9 -4 5 -9 -3 -5 -2 -12
2 -14 5 -3 9 13 9 36 1 23 3 49 5 57 2 8 -2 14 -8 13 -7 -2 -13 2 -13 7 0 6 4
10 8 10 5 0 9 7 9 14 0 11 -5 12 -18 5 -24 -12 -26 -12 -26 6 0 9 6 14 13 11
8 -3 15 -2 18 2 8 14 -32 11 -44 -3z m170 -4 c5 7 8 -1 6 -22 -1 -19 2 -39 7
-46 4 -6 3 -14 -4 -19 -7 -4 -9 -3 -5 4 9 15 -12 26 -28 13 -10 -9 -13 -5 -11
17 1 21 6 26 21 24 18 -2 18 -2 2 11 -10 8 -14 17 -11 21 4 4 9 2 12 -5 2 -8
6 -8 11 2z m-130 -25 c0 -3 -7 -12 -16 -21 -15 -14 -14 -15 9 -11 19 3 24 1
20 -10 -3 -8 -9 -12 -13 -9 -5 3 -12 1 -15 -5 -4 -6 -1 -9 6 -8 6 2 13 -2 15
-7 2 -6 -4 -11 -15 -12 -13 -1 -18 4 -16 15 1 9 -2 22 -7 28 -5 8 -3 18 7 28
16 16 25 20 25 12z m125 -127 c-5 -7 -11 -6 -20 1 -11 9 -12 15 -2 25 10 11
13 10 20 -1 4 -8 5 -19 2 -25z m-130 -19 c3 -6 -1 -7 -9 -4 -18 7 -21 14 -7
14 6 0 13 -4 16 -10z m118 -20 c-7 -26 -25 -38 -21 -14 2 15 15 33 25 34 0 0
-1 -9 -4 -20z m-33 -54 c0 -5 -7 -3 -15 4 -8 7 -12 17 -9 22 7 10 24 -9 24
-26z m-60 14 c-12 -8 -12 -10 -1 -10 8 0 12 -2 9 -5 -3 -3 -13 -2 -22 1 -14 5
-15 9 -4 15 7 5 18 9 23 9 6 0 3 -5 -5 -10z"/>
<path d="M5102 2843 c8 -10 7 -13 -3 -13 -11 0 -11 -2 1 -10 12 -8 12 -10 -2
-15 -14 -6 -11 -12 17 -37 28 -24 33 -34 25 -48 -5 -9 -6 -20 -3 -24 11 -11
12 -39 2 -57 -6 -12 -5 -20 3 -25 7 -4 8 -3 4 4 -7 12 6 17 17 6 8 -8 -3 -35
-12 -30 -4 3 -7 -3 -7 -13 0 -21 39 -22 58 -2 7 7 9 12 3 11 -20 -4 -35 0 -35
11 0 6 9 8 23 4 15 -4 18 -3 8 3 -11 8 -11 10 0 15 10 4 10 6 2 6 -7 1 -13 6
-13 12 0 5 4 8 9 4 5 -3 13 0 17 6 4 7 3 9 -3 6 -5 -3 -25 7 -44 23 -39 33
-31 40 11 10 l29 -21 -4 21 c-2 11 0 20 6 20 5 0 9 5 9 10 0 6 -5 9 -11 8 -6
-2 -14 3 -17 11 -2 8 0 11 6 7 6 -3 13 -2 17 4 4 6 11 7 17 4 7 -5 8 -2 4 5
-5 8 -2 11 9 9 10 -2 20 3 23 11 3 10 -2 11 -19 6 -21 -7 -22 -6 -11 8 8 9 21
13 30 10 13 -4 12 -2 -3 10 -11 8 -23 13 -27 11 -5 -3 -8 2 -8 11 0 10 5 13
13 9 6 -4 8 -3 4 1 -15 17 -36 14 -29 -3 5 -15 4 -15 -13 -2 -24 19 -119 22
-103 3z m48 -26 c0 -5 -4 -6 -9 -3 -5 3 -14 -1 -21 -9 -12 -15 -4 -20 23 -16
6 1 11 -13 9 -30 -1 -3 5 -6 13 -6 8 0 12 4 9 8 -3 5 3 21 13 36 12 19 14 25
4 18 -11 -6 -13 -4 -9 7 4 8 1 15 -7 15 -7 0 -11 -7 -8 -16 4 -14 4 -14 -6 -1
-6 8 -11 18 -11 22 0 13 42 2 54 -14 6 -8 19 -14 29 -12 15 2 16 0 6 -12 -7
-8 -19 -12 -28 -9 -8 3 -12 3 -8 -1 4 -4 -1 -13 -11 -21 -15 -13 -15 -13 5 -4
30 15 36 14 21 -3 -7 -8 -16 -12 -20 -10 -13 8 -20 -17 -9 -30 9 -10 8 -15 -3
-19 -8 -3 -20 1 -26 9 -9 10 -9 14 -1 14 6 0 11 -5 11 -12 0 -6 3 -8 7 -5 3 4
-12 23 -36 43 -33 29 -39 39 -30 50 6 8 8 14 5 14 -4 0 -1 6 6 14 13 13 27 4
28 -17z m22 -16 c8 11 9 11 6 1 -4 -16 -22 -18 -25 -2 -1 7 0 6 4 -1 4 -8 8
-7 15 2z m8 -156 c-10 -12 -10 -15 0 -15 8 0 10 -3 7 -6 -4 -4 -14 -1 -23 7
-15 12 -14 14 3 20 26 11 27 11 13 -6z"/>
<path d="M5261 2844 c0 -11 3 -14 6 -6 3 7 2 16 -1 19 -3 4 -6 -2 -5 -13z"/>
<path d="M5307 2843 c6 -16 20 -17 26 0 4 9 6 9 6 0 1 -7 -8 -17 -19 -23 -11
-6 -18 -15 -15 -21 4 -5 0 -9 -7 -9 -8 0 -9 -3 -3 -8 12 -9 16 -52 4 -52 -5 0
-9 -5 -9 -11 0 -5 4 -8 9 -4 5 3 12 1 15 -4 4 -5 2 -12 -3 -15 -5 -3 -8 -24
-8 -46 1 -34 3 -38 16 -27 12 10 14 9 8 -6 -4 -10 -3 -16 2 -12 5 3 12 -4 16
-15 5 -16 12 -19 27 -14 12 3 18 2 15 -3 -5 -8 42 -10 51 -3 1 1 7 3 13 4 22
2 37 38 35 87 -2 27 1 52 6 55 15 9 -2 23 -23 19 -13 -3 -19 0 -16 8 2 7 11
11 19 9 9 -1 18 5 22 13 4 11 2 14 -7 8 -20 -12 -38 -12 -34 0 2 7 9 12 15 12
5 0 14 4 19 9 4 5 3 6 -4 2 -6 -3 -14 -2 -18 4 -3 5 0 10 8 10 9 0 15 10 15
24 0 18 -6 24 -19 23 -9 -1 -15 -5 -13 -9 3 -5 9 -6 13 -4 4 3 8 -1 8 -9 0
-12 -4 -12 -27 0 l-26 14 0 -49 c0 -38 3 -47 16 -42 13 5 13 3 1 -11 -7 -9
-18 -14 -24 -10 -6 4 -7 1 -2 -8 13 -20 13 -49 1 -49 -6 -1 -1 -6 12 -13 12
-7 20 -16 16 -20 -4 -4 -13 -2 -20 4 -9 7 -12 6 -10 -5 1 -9 5 -19 9 -22 18
-18 4 -23 -20 -7 -15 10 -28 17 -30 16 -19 -17 -27 46 -10 74 4 7 4 14 -1 17
-5 3 -8 25 -7 50 1 25 -2 43 -7 40 -4 -3 -6 -10 -3 -15 4 -5 1 -9 -4 -9 -14 0
-14 27 0 35 16 10 5 28 -18 30 -14 1 -19 -3 -16 -12z m149 -36 c1 -9 -3 -20
-10 -26 -8 -7 -12 -1 -12 20 -2 31 17 36 22 6z m-120 -25 c12 -8 15 -44 3 -37
-4 3 -9 -2 -12 -10 -4 -9 -1 -12 7 -9 17 6 31 -12 17 -21 -6 -3 -8 -12 -4 -20
3 -8 0 -15 -7 -15 -6 0 -8 5 -5 10 3 6 2 10 -4 10 -5 0 -9 -9 -8 -19 1 -12 6
-17 16 -13 9 3 12 1 8 -5 -11 -17 3 -41 21 -38 9 1 26 -3 38 -10 16 -11 24
-10 45 2 13 8 16 12 7 9 -9 -3 -22 3 -30 12 -7 8 -8 13 -3 10 6 -4 19 0 29 8
18 13 18 14 -4 22 -20 7 -21 10 -6 15 10 4 14 11 11 17 -3 5 -1 10 5 10 6 0 9
4 6 8 -3 5 1 9 9 9 9 0 11 -5 7 -11 -5 -6 -7 -31 -7 -56 2 -53 -9 -82 -30 -74
-8 4 -15 2 -15 -4 0 -11 -18 -11 -37 1 -7 5 -17 6 -23 2 -5 -3 -16 8 -25 25
-9 17 -20 28 -25 25 -16 -10 -8 48 9 68 12 15 12 18 2 15 -9 -2 -15 7 -16 25
-2 22 2 27 14 22 11 -3 10 0 -3 10 -20 15 -11 21 10 7z m111 -72 c-1 -11 -5
-20 -9 -20 -3 0 -6 9 -5 20 1 11 5 20 9 20 3 0 6 -9 5 -20z"/>
<path d="M5387 2599 c7 -7 15 -10 18 -7 3 3 -2 9 -12 12 -14 6 -15 5 -6 -5z"/>
<path d="M5540 2853 c5 -2 10 -9 10 -14 0 -6 -4 -7 -10 -4 -11 7 -14 -8 -3
-19 4 -3 8 -16 10 -28 3 -18 1 -19 -14 -7 -15 12 -16 12 -8 -1 12 -19 13 -42
2 -57 -4 -6 -3 -14 3 -18 6 -3 7 -11 4 -17 -4 -6 3 -4 17 5 30 22 38 21 34 0
-2 -10 -4 -20 -4 -23 -1 -3 -5 2 -11 10 -5 8 -12 11 -17 7 -4 -5 -1 -12 7 -17
11 -7 12 -10 2 -10 -7 0 -11 -4 -7 -9 3 -5 1 -13 -5 -16 -6 -4 -10 -3 -9 2 3
19 -2 33 -12 33 -8 0 -8 -4 0 -13 8 -10 8 -16 -1 -25 -8 -8 -6 -10 8 -7 11 2
22 4 25 4 4 1 9 11 13 24 6 21 7 21 42 -15 19 -21 33 -42 29 -47 -3 -6 1 -13
8 -18 7 -4 21 -19 30 -32 14 -21 17 -22 23 -8 3 9 10 14 15 11 5 -3 7 -10 4
-15 -3 -5 2 -6 11 -2 16 6 16 7 -1 19 -10 7 -22 11 -26 8 -4 -2 -6 9 -4 26 2
21 -2 37 -15 50 -10 10 -15 22 -12 26 4 4 1 4 -5 0 -7 -4 -13 -3 -13 1 0 16
28 48 42 48 8 0 13 14 14 37 1 22 -2 35 -8 32 -5 -3 -7 -12 -4 -20 6 -17 -10
-19 -20 -2 -4 6 1 19 12 27 10 9 20 23 22 31 2 11 -2 10 -12 -3 -8 -10 -16
-14 -17 -8 -2 5 -11 11 -19 13 -17 3 -30 18 -30 33 0 6 5 3 10 -5 5 -8 10 -11
10 -7 0 4 9 3 19 -3 14 -7 22 -7 27 2 4 7 3 8 -4 4 -7 -4 -12 -3 -12 2 0 10
-4 11 -72 15 -35 3 -45 1 -38 -7 6 -8 3 -16 -10 -24 -17 -11 -19 -9 -17 9 1
12 -4 23 -11 25 -7 1 -8 0 -2 -3z m94 -21 c3 -9 8 -22 11 -28 3 -6 0 -14 -8
-17 -7 -3 -14 1 -14 9 0 7 5 10 10 7 6 -3 7 -1 3 6 -4 6 -12 9 -17 5 -5 -3 -7
-10 -4 -15 4 -5 0 -9 -8 -9 -21 0 -18 56 4 57 9 1 20 -6 23 -15z m-49 -32 c-7
-12 32 -33 45 -25 19 12 22 -26 4 -46 -11 -12 -19 -32 -19 -46 -1 -19 1 -22
10 -11 5 8 19 18 30 22 13 5 16 10 7 13 -19 7 -4 23 16 17 10 -4 13 -3 6 3
-19 14 -34 51 -28 67 5 12 9 13 19 3 10 -9 10 -15 2 -26 -9 -10 -6 -17 11 -31
24 -20 29 -32 11 -27 -6 1 -21 -11 -32 -26 l-22 -29 24 -19 c17 -14 24 -31 25
-59 l2 -39 -21 22 c-12 12 -20 27 -18 33 2 6 -3 17 -12 24 -17 14 -21 35 -3
24 7 -4 8 -3 4 4 -4 6 -13 9 -20 6 -7 -3 -19 3 -27 12 -9 12 -10 15 -1 10 6
-4 12 -2 12 3 0 6 -5 11 -11 11 -5 0 -8 4 -4 9 3 5 1 12 -5 16 -6 4 -7 13 -1
23 6 12 5 23 -4 35 -13 18 -13 18 -19 0 -8 -24 -6 -39 5 -36 4 2 6 -4 2 -13
-5 -13 -7 -13 -14 -2 -7 10 -9 9 -9 -5 0 -10 -5 -15 -10 -12 -8 5 -8 11 -1 19
6 7 8 16 4 19 -3 4 0 13 7 22 7 9 10 18 7 22 -9 9 13 34 24 27 5 -3 7 -9 4
-14z m-1 -39 c3 -5 -1 -11 -9 -14 -9 -4 -12 -1 -8 9 6 16 10 17 17 5z m67 -34
c-6 -8 -8 -16 -5 -19 2 -3 -2 -8 -11 -11 -20 -8 -19 2 2 25 19 21 31 25 14 5z"/>
<path d="M5650 2631 c0 -5 5 -13 10 -16 6 -3 10 -2 10 4 0 5 -4 13 -10 16 -5
3 -10 2 -10 -4z"/>
<path d="M5753 2844 c0 -8 4 -14 9 -14 4 0 8 5 8 12 0 16 13 1 16 -18 2 -11
-3 -13 -18 -8 -16 5 -20 3 -15 -9 3 -8 0 -20 -6 -26 -9 -9 -9 -12 0 -9 6 2 10
-1 10 -7 -1 -5 -6 -9 -10 -7 -5 1 -6 -2 -2 -8 3 -6 11 -8 16 -5 5 4 9 1 9 -4
0 -6 -5 -11 -12 -11 -6 0 -3 -7 8 -15 19 -15 19 -15 -1 -9 -17 4 -16 3 3 -8
12 -8 20 -17 16 -21 -4 -4 -14 -1 -23 5 -13 10 -14 10 -3 -2 14 -17 16 -34 2
-25 -5 3 -10 1 -10 -5 0 -7 7 -10 15 -7 8 4 17 2 20 -3 5 -9 -6 -14 -26 -12
-3 1 -6 -6 -6 -14 0 -7 3 -12 5 -9 3 3 13 -5 21 -17 9 -13 22 -24 30 -26 17
-4 53 27 45 39 -3 5 0 9 5 9 14 0 14 -23 0 -37 -7 -7 -4 -10 13 -8 32 3 32 3
18 20 -6 8 -9 18 -6 23 7 11 -26 12 -40 1 -14 -11 -37 14 -41 44 -2 11 0 18 3
14 4 -4 18 0 31 8 14 9 23 11 23 5 0 -6 5 -8 11 -5 10 7 -18 34 -33 31 -4 0
-13 8 -21 18 -9 12 -19 16 -27 11 -8 -5 -11 -3 -8 6 3 8 -1 22 -10 32 -18 20
-5 22 20 3 10 -7 14 -17 10 -21 -4 -5 -1 -5 6 -1 7 4 10 11 7 16 -3 5 12 7 33
5 36 -4 40 -2 40 21 0 18 -5 23 -17 19 -12 -3 -17 1 -18 16 -2 17 1 19 10 10
6 -6 16 -11 22 -11 5 0 1 6 -10 12 -23 14 -76 18 -69 6 6 -10 -10 -11 -20 -1
-12 13 -33 11 -33 -3z m83 -26 c-16 -11 -28 -10 -21 2 4 6 -1 7 -12 4 -16 -6
-16 -5 1 8 15 12 23 13 32 4 9 -8 9 -13 0 -18z m14 -21 c0 -5 6 -5 13 2 10 8
14 7 14 -2 0 -9 -15 -12 -46 -11 -54 2 -54 2 -47 12 7 12 66 11 66 -1z m-50
-77 c-13 -8 -12 -10 3 -11 30 -3 35 -4 42 -11 6 -6 -34 -33 -45 -30 -3 0 -4
-6 -3 -15 1 -11 -2 -12 -10 -4 -7 7 -7 14 1 24 9 10 8 18 -2 33 -13 18 -12 20
7 21 17 2 19 0 7 -7z m41 -128 c2 2 0 -3 -6 -10 -14 -16 -42 -6 -56 19 -8 15
-6 17 7 12 13 -5 15 -3 9 8 -5 8 3 4 17 -9 13 -12 27 -21 29 -20z"/>
<path d="M5796 2601 c-3 -5 1 -11 9 -14 9 -4 12 -1 8 9 -6 16 -10 17 -17 5z"/>
<path d="M929 2846 c-7 -4 -4 -44 2 -40 5 3 9 0 9 -5 0 -6 -4 -11 -8 -11 -5 0
-8 -23 -6 -50 1 -28 -1 -48 -5 -46 -6 4 -7 -34 -1 -41 2 -3 6 -14 9 -30 1 -5
8 1 16 11 17 23 20 14 4 -15 -8 -16 -14 -18 -24 -9 -13 11 -13 8 -6 -29 1 -2
8 2 16 9 17 14 21 0 4 -17 -9 -9 -7 -11 7 -8 11 1 18 8 17 14 -2 6 2 11 7 11
6 0 8 13 5 29 -5 30 8 50 20 31 4 -6 11 -8 16 -5 12 8 12 -2 -1 -25 -7 -13 -7
-21 0 -25 6 -4 8 -10 5 -15 -8 -13 9 -20 25 -9 13 7 13 9 1 9 -11 0 -9 5 5 22
15 19 16 20 2 9 -10 -7 -18 -9 -18 -3 0 15 26 33 36 24 4 -4 2 1 -5 11 -7 9
-9 17 -3 17 15 0 33 -26 24 -35 -4 -5 -1 -5 6 -1 9 6 11 1 8 -18 -3 -16 -1
-24 5 -20 6 3 9 -2 7 -12 -2 -13 4 -19 20 -20 12 -1 22 3 22 8 0 5 -10 6 -22
2 -20 -6 -21 -5 -9 9 7 9 17 15 21 12 5 -3 12 0 16 6 4 8 3 9 -4 5 -13 -8 -17
6 -5 17 13 13 9 55 -4 50 -9 -3 -11 0 -8 10 8 20 -21 29 -39 11 -8 -8 -17 -10
-20 -5 -3 5 1 12 10 15 13 5 14 9 4 21 -13 16 0 21 16 6 5 -5 18 -11 29 -13
17 -3 19 3 21 59 0 34 -3 67 -8 75 -8 10 -9 9 -5 -3 4 -13 -1 -16 -19 -15 -21
1 -22 2 -8 13 15 11 14 12 -4 10 -11 0 -18 -5 -16 -9 3 -4 -3 -8 -13 -8 -10 0
-14 -3 -8 -8 12 -8 13 -27 3 -38 -5 -4 -8 1 -8 11 0 25 -13 10 -15 -18 -1 -12
-8 -22 -16 -22 -8 0 -13 6 -11 13 1 8 -2 11 -9 6 -8 -4 -9 1 -4 17 7 23 6 23
-8 5 -14 -19 -14 -19 -14 7 0 15 3 24 8 21 5 -3 9 -1 9 5 0 5 -4 13 -10 16 -5
3 -10 0 -10 -7 0 -9 -3 -9 -10 2 -6 10 -10 11 -10 3 0 -7 -5 -13 -11 -13 -5 0
-8 4 -5 8 4 7 -17 13 -25 8z m40 -22 c5 3 11 -1 15 -9 3 -8 0 -17 -6 -21 -7
-5 -8 -2 -3 6 5 8 4 11 -3 6 -6 -4 -9 -13 -6 -21 4 -8 10 -13 14 -10 4 3 20
-5 34 -16 21 -17 30 -19 41 -9 8 7 12 16 9 21 -3 5 2 6 10 3 14 -5 18 1 15 23
-1 11 29 23 44 17 20 -7 19 -81 -1 -89 -17 -6 -34 3 -27 15 3 4 -2 11 -11 14
-8 3 -12 2 -9 -3 3 -5 1 -13 -5 -16 -8 -5 -7 -12 2 -23 8 -9 8 -13 2 -9 -17
10 -25 -20 -9 -33 10 -8 17 -7 28 5 9 8 18 11 21 6 3 -5 -1 -11 -9 -15 -8 -3
-12 -12 -9 -21 3 -8 11 -12 16 -9 6 4 5 10 -3 15 -10 6 -10 9 -2 9 22 0 33
-33 18 -54 -15 -19 -37 -14 -29 7 6 16 -35 55 -58 54 -20 0 -24 -13 -7 -19 7
-2 4 -10 -7 -18 -10 -9 -15 -10 -10 -3 4 7 2 22 -4 34 -14 25 -6 36 14 20 11
-9 15 -8 20 4 3 9 -1 18 -9 21 -8 4 -15 13 -15 21 0 10 -6 13 -16 9 -10 -4
-13 -2 -8 6 5 7 3 8 -6 3 -9 -6 -11 -4 -5 5 6 9 4 11 -4 6 -16 -10 -51 22 -45
39 3 7 1 16 -5 20 -6 3 -11 11 -11 17 0 7 5 6 15 -2 8 -6 18 -9 24 -6z m3 -79
c16 -14 33 -24 36 -22 4 2 15 -4 24 -14 17 -18 17 -19 -5 -16 -18 2 -22 -2
-19 -22 2 -19 0 -22 -12 -12 -8 7 -17 8 -20 3 -9 -16 -51 -8 -47 8 2 8 5 23 5
32 1 10 5 21 9 24 10 10 9 26 -1 20 -5 -3 -9 1 -9 9 0 20 4 19 39 -10z"/>
<path d="M1113 2797 c-15 -18 -27 -43 -18 -35 4 4 14 3 21 -3 8 -7 14 -7 19 1
4 6 1 9 -6 8 -6 -2 -14 3 -17 11 -2 8 0 11 6 7 6 -3 13 -2 16 3 10 15 -10 22
-21 8z"/>
<path d="M1054 2734 c-18 -14 -18 -15 4 -4 12 6 22 13 22 15 0 8 -5 6 -26 -11z"/>
<path d="M1119 2613 c-13 -16 -12 -17 4 -4 9 7 17 15 17 17 0 8 -8 3 -21 -13z"/>
<path d="M950 2725 c-8 -9 -9 -15 -4 -14 20 3 28 -2 15 -10 -8 -5 -16 -16 -17
-24 -3 -22 24 -16 48 12 13 14 16 20 8 14 -19 -17 -35 -16 -21 1 8 10 8 16 -3
25 -10 9 -16 8 -26 -4z m20 -45 c0 -5 -2 -10 -4 -10 -3 0 -8 5 -11 10 -3 6 -1
10 4 10 6 0 11 -4 11 -10z"/>
<path d="M3929 2841 c0 -3 -2 -14 -4 -23 -2 -11 2 -15 12 -11 14 5 14 4 0 -18
-8 -14 -13 -41 -12 -67 2 -28 0 -40 -7 -35 -7 4 -8 1 -2 -8 14 -23 16 -51 2
-43 -7 4 -8 3 -4 -5 4 -6 12 -9 17 -6 5 4 9 2 9 -4 0 -5 -8 -15 -17 -20 -11
-6 -13 -11 -5 -11 7 0 10 -4 7 -10 -7 -11 -6 -11 46 -14 25 -2 35 2 33 9 -3 6
2 12 11 12 9 0 14 -6 11 -13 -3 -7 2 -11 12 -9 10 1 16 10 14 19 -2 8 2 25 8
36 9 16 8 19 -6 13 -11 -4 -15 -2 -11 4 3 5 0 10 -8 10 -8 0 -12 -4 -10 -8 3
-4 -3 -10 -12 -13 -23 -9 -49 23 -30 37 8 5 5 6 -8 3 -15 -4 -21 -1 -21 12 -1
9 -4 24 -8 33 -5 11 -2 16 9 16 9 0 14 -6 11 -12 -2 -6 2 -12 9 -12 10 0 11 5
4 19 -6 10 -14 16 -18 13 -5 -2 -8 7 -8 22 l0 26 19 -24 c15 -18 17 -19 10 -4
-5 11 -7 27 -5 35 4 13 3 13 -6 0 -6 -8 -11 -13 -12 -10 0 3 -2 13 -4 23 -2
13 1 17 10 13 19 -7 26 6 14 24 -6 10 -9 11 -9 3 0 -7 -5 -13 -11 -13 -5 0 -8
4 -5 8 3 5 -1 9 -9 9 -8 0 -15 -3 -16 -6z m14 -96 c-7 -21 -12 -19 -10 4 0 11
5 18 9 15 4 -3 5 -11 1 -19z m7 -65 c0 -5 -5 -10 -11 -10 -5 0 -7 5 -4 10 3 6
8 10 11 10 2 0 4 -4 4 -10z m10 -30 c13 -9 13 -10 0 -10 -8 0 -2 -7 13 -15 20
-10 34 -12 47 -5 20 11 31 4 24 -15 -3 -8 -14 -12 -25 -10 -10 2 -24 -4 -30
-13 -10 -16 -10 -16 -5 0 6 19 -19 45 -28 29 -4 -5 -2 -12 4 -16 15 -9 12 -22
-5 -22 -8 0 -12 4 -9 9 3 4 0 8 -7 8 -9 0 -9 3 0 14 13 16 11 37 -4 48 -15 12
7 10 25 -2z"/>
<path d="M4976 2841 c-4 -5 -2 -13 4 -16 8 -5 7 -11 -1 -21 -9 -11 -9 -14 0
-14 7 0 9 -5 4 -12 -4 -7 -9 -21 -10 -31 -2 -14 1 -17 18 -12 19 6 20 5 9 -15
-9 -17 -14 -19 -20 -10 -4 7 -7 -7 -6 -31 1 -38 6 -47 34 -67 30 -21 35 -42
11 -42 -6 0 -8 4 -5 9 3 5 -5 16 -19 25 -13 9 -26 12 -30 7 -3 -5 -1 -12 5
-16 6 -4 7 -11 4 -17 -4 -7 -2 -8 4 -4 7 4 12 3 12 -2 0 -4 13 -8 29 -8 17 0
29 4 28 9 -1 5 4 12 11 14 7 3 11 -1 10 -8 -2 -7 6 -13 17 -14 16 0 20 7 21
30 0 17 3 35 6 41 4 5 -3 10 -15 11 -12 0 -16 -1 -9 -4 6 -3 12 -10 12 -15 0
-6 -3 -8 -7 -5 -3 4 -15 0 -25 -10 -10 -9 -18 -11 -18 -5 0 6 5 14 10 17 6 3
10 12 9 18 0 8 -2 8 -6 -1 -10 -26 -41 26 -36 63 2 24 -1 35 -9 35 -9 0 -8 3
2 10 8 5 10 10 4 10 -6 0 -11 7 -11 15 0 8 4 15 8 15 8 0 5 48 -5 57 -3 3 -6
-1 -6 -10 0 -9 -5 -17 -11 -17 -5 0 -8 4 -4 9 3 5 1 12 -4 15 -5 4 -12 2 -15
-3z m38 -36 c-7 -16 -24 -21 -24 -6 0 8 7 13 27 20 1 1 0 -6 -3 -14z m-13 -32
c-10 -4 -10 -7 -1 -13 9 -5 8 -9 -3 -13 -13 -5 -16 5 -8 31 1 1 7 2 14 1 8 0
8 -2 -2 -6z m14 -88 c-2 -25 0 -43 5 -40 4 3 13 -2 20 -10 10 -12 10 -15 0
-15 -9 0 -9 -4 1 -17 13 -16 12 -17 -3 -4 -10 7 -15 18 -11 24 4 6 0 8 -10 4
-18 -7 -38 19 -33 44 2 13 28 59 33 59 1 0 0 -20 -2 -45z m81 -77 c4 -7 3 -8
-4 -4 -7 4 -12 2 -12 -3 0 -6 5 -11 10 -11 6 0 10 -4 10 -8 0 -5 -6 -9 -14 -9
-7 0 -12 9 -11 21 4 31 9 34 21 14z m-92 -27 c-2 -3 -12 3 -22 13 -16 17 -16
18 5 5 12 -7 20 -15 17 -18z"/>
<path d="M4990 2659 c0 -5 5 -7 10 -4 6 3 10 8 10 11 0 2 -4 4 -10 4 -5 0 -10
-5 -10 -11z"/>
<path d="M2198 2703 c-8 -10 -18 -25 -22 -33 -5 -10 -2 -9 7 2 9 11 17 14 23
8 7 -7 10 -1 10 15 0 30 1 29 -18 8z"/>
<path d="M2475 2680 c3 -5 8 -10 11 -10 2 0 4 5 4 10 0 6 -5 10 -11 10 -5 0
-7 -4 -4 -10z"/>
<path d="M1450 2642 c0 -7 -4 -10 -10 -7 -5 3 -10 1 -10 -5 0 -7 7 -9 16 -6
10 4 14 2 11 -6 -2 -7 -9 -12 -14 -11 -5 1 -9 -8 -10 -20 0 -12 1 -16 4 -9 4
10 8 9 17 -3 11 -15 13 -15 25 -1 10 12 11 16 1 16 -10 0 -10 3 0 15 10 12 10
19 2 27 -7 7 -12 8 -12 3 0 -6 -5 -3 -10 5 -7 11 -10 11 -10 2z m23 -33 c-6
-6 -9 -19 -6 -28 4 -13 3 -13 -5 -2 -10 14 6 56 17 45 3 -2 0 -9 -6 -15z"/>
<path d="M3990 2640 c0 -5 5 -10 10 -10 6 0 10 5 10 10 0 6 -4 10 -10 10 -5 0
-10 -4 -10 -10z"/>
<path d="M4275 2626 c5 -32 12 -43 22 -32 4 4 2 11 -6 15 -7 5 -12 11 -11 15
1 4 -1 12 -4 19 -3 6 -3 -1 -1 -17z"/>
<path d="M1353 2618 c-4 -7 -9 -21 -10 -31 -3 -16 -1 -16 10 -5 8 7 14 21 14
31 0 20 -3 21 -14 5z"/>
<path d="M1530 2615 c0 -5 5 -17 10 -25 5 -8 10 -10 10 -5 0 6 -5 17 -10 25
-5 8 -10 11 -10 5z"/>
<path d="M5560 2610 c-7 -4 -19 -6 -27 -3 -7 3 -13 0 -13 -5 0 -6 9 -9 19 -7
14 2 18 -1 14 -11 -3 -7 -10 -11 -16 -7 -5 3 -7 1 -4 -5 13 -20 42 -6 39 19
-2 19 -1 21 7 9 7 -9 11 -10 11 -3 0 17 -14 23 -30 13z"/>
<path d="M4150 2600 c0 -5 5 -10 10 -10 6 0 10 5 10 10 0 6 -4 10 -10 10 -5 0
-10 -4 -10 -10z"/>
<path d="M5300 2598 c0 -2 9 -11 20 -21 11 -9 20 -13 20 -7 0 5 -9 14 -20 20
-11 6 -20 9 -20 8z"/>
<path d="M5753 2577 c0 -8 6 -14 14 -14 9 0 10 4 2 14 -6 7 -12 13 -14 13 -1
0 -2 -6 -2 -13z"/>
<path d="M875 2570 c-3 -5 -1 -10 4 -10 6 0 11 5 11 10 0 6 -2 10 -4 10 -3 0
-8 -4 -11 -10z"/>
<path d="M2710 2576 c0 -2 7 -7 16 -10 8 -3 12 -2 9 4 -6 10 -25 14 -25 6z"/>
<path d="M3227 2569 c7 -7 15 -10 18 -7 3 3 -2 9 -12 12 -14 6 -15 5 -6 -5z"/>
<path d="M1626 2532 c-3 -5 1 -9 9 -9 8 0 12 4 9 9 -3 4 -7 8 -9 8 -2 0 -6 -4
-9 -8z"/>
</g>
</svg>
